<?xml version="1.0" encoding="UTF-8" standalone="no"?>
<!-- Created with Inkscape (http://www.inkscape.org/) -->

<svg
   version="1.1"
   id="svg1438"
   width="1132.6667"
   height="857.33331"
   viewBox="0 0 1132.6667 857.33331"
   sodipodi:docname="overcast.svg"
   inkscape:version="1.2.2 (b0a84865, 2022-12-01)"
   xmlns:inkscape="http://www.inkscape.org/namespaces/inkscape"
   xmlns:sodipodi="http://sodipodi.sourceforge.net/DTD/sodipodi-0.dtd"
   xmlns="http://www.w3.org/2000/svg"
   xmlns:svg="http://www.w3.org/2000/svg">
  <defs
     id="defs1442" />
  <sodipodi:namedview
     id="namedview1440"
     pagecolor="#ffffff"
     bordercolor="#000000"
     borderopacity="0.25"
     inkscape:showpageshadow="2"
     inkscape:pageopacity="0.0"
     inkscape:pagecheckerboard="0"
     inkscape:deskcolor="#d1d1d1"
     showgrid="false"
     inkscape:zoom="1.1000588"
     inkscape:cx="566.33337"
     inkscape:cy="429.06798"
     inkscape:window-width="3440"
     inkscape:window-height="1412"
     inkscape:window-x="1440"
     inkscape:window-y="28"
     inkscape:window-maximized="0"
     inkscape:current-layer="g1444" />
  <g
     inkscape:groupmode="layer"
     inkscape:label="Image"
     id="g1444">
    <path
       style="fill:#000000;stroke-width:0.666667"
       d="m 234.00001,762.56525 c -2.38334,-0.23907 -7.78334,-0.7768 -12,-1.19494 -20.20405,-2.00326 -39.54806,-9.2156 -58.57197,-21.83833 -29.41553,-19.51767 -48.5443,-47.3644 -55.84845,-81.30136 -1.70468,-7.92037 -1.84519,-9.7163 -1.86971,-23.8973 -0.023,-13.29396 0.17173,-16.31609 1.46402,-22.72229 7.8202,-38.76648 32.17442,-70.17648 67.67379,-87.27989 14.34593,-6.9118 27.51882,-10.66229 43.48565,-12.3809 8.69867,-0.93629 27.61779,-0.41291 35,0.96824 2.75,0.51451 6.08045,1.14335 7.40101,1.39744 l 2.40101,0.46198 5.04438,-6.88896 c 27.53918,-37.60939 70.30844,-61.82815 119.42208,-67.62464 10.34625,-1.22109 30.56943,-1.37421 40.39819,-0.30589 8.85947,0.96297 19.85926,2.93786 27.99542,5.02626 3.48082,0.89346 6.50689,1.41241 6.7246,1.15323 0.21772,-0.25919 1.18652,-4.37125 2.15289,-9.13791 5.8522,-28.86623 18.56205,-61.12129 33.63957,-85.37055 33.93947,-54.585 86.61119,-96.18675 147.52654,-116.52099 42.49792,-14.18628 88.89686,-17.6732 133.95239,-10.06662 75.09174,12.67749 142.36841,56.75644 184.10688,120.62483 25.05513,38.33944 39.587,80.57178 43.6415,126.82998 1.1553,13.18138 0.9662,39.34713 -0.3554,49.15871 -0.7385,5.48351 -0.6004,5.65318 4.6156,5.66789 5.0557,0.0143 18.4881,2.28044 25.4087,4.28671 42.2625,12.2518 74.753,46.54683 83.8422,88.49877 0.7531,3.47579 1.7399,10.42324 2.1929,15.43878 1.3339,14.76922 -0.7931,31.94428 -5.7941,46.78581 -2.3918,7.0982 -9.437,21.53307 -13.3405,27.33334 -19.3525,28.75626 -48.7212,46.99926 -83.6425,51.9564 -7.0109,0.99526 -40.79614,1.10066 -395.00001,1.2326 -213.03334,0.0794 -389.28335,-0.0513 -391.66668,-0.2904 z M 74.696929,662.17387 C 46.128387,645.09539 25.296207,617.393 17.048165,585.51321 12.920646,569.5598 12.535038,548.19773 16.082194,531.99999 c 7.915181,-36.14392 32.086634,-66.19497 66.251142,-82.36646 23.550694,-11.14752 49.484884,-14.61585 76.323624,-10.2072 8.07744,1.32684 8.349,1.3309 9.18173,0.13714 12.09144,-17.33366 27.98778,-32.85704 45.49465,-44.42726 8.544,-5.64669 25.86334,-14.20793 35.33317,-17.46577 33.98856,-11.69286 68.56929,-13.37991 102.93013,-5.02152 4.72814,1.15014 8.80421,1.84964 9.05793,1.55444 0.25372,-0.29518 1.26085,-4.48643 2.23807,-9.31387 4.29858,-21.23487 11.53407,-41.65779 22.37362,-63.1518 7.45867,-14.78999 14.86142,-26.70013 24.83793,-39.96125 9.03715,-12.0125 11.89273,-15.29773 23.45558,-26.98463 45.01892,-45.5019 103.34245,-72.59766 168.10691,-78.09856 10.22356,-0.86836 32.9967,-0.87453 43.33334,-0.0117 24.93507,2.08129 51.59993,8.10752 73.58507,16.63012 14.99426,5.81258 27.63167,11.75648 30.24827,14.22704 1.99113,1.87997 2.54513,5.73471 1,6.95759 -0.45834,0.36274 -6.53334,0.85894 -13.5,1.10267 -45.90081,1.60587 -88.28297,12.43103 -131.08626,33.48174 -46.41196,22.82545 -86.86268,55.4822 -114.68291,92.58599 -21.477,28.64384 -36.38396,60.99263 -40.67576,88.2682 -0.58167,3.6967 -1.1358,5.39847 -1.75785,5.39847 -0.49963,0 -3.2084,-0.58242 -6.01949,-1.29427 -12.1644,-3.08036 -22.12571,-4.16266 -37.9832,-4.12691 -26.50201,0.0597 -52.21891,5.43264 -77.69115,16.23156 -33.39238,14.15665 -60.25577,35.41919 -76.25493,60.35628 l -4.38413,6.83333 h -8.11639 c -26.94396,0 -56.95596,7.25972 -80.28425,19.42029 -17.86052,9.31032 -31.67964,20.09363 -43.88772,34.24638 -20.820617,24.1372 -31.516831,52.72296 -31.506244,84.20081 0.0027,8.40816 1.436626,21.48965 3.21136,29.29933 0.549667,2.41881 0.45206,3.07736 -0.666987,4.5 -0.720987,0.91659 -1.541333,1.66652 -1.822987,1.66652 -0.28166,0 -3.894046,-2.02175 -8.027533,-4.49278 z"
       id="path1448" />
    <path
       style="fill:#87aade;stroke-width:0.909042"
       d="m 221.80633,760.87482 c -29.59029,-3.65245 -56.65993,-17.08715 -78.69975,-39.05877 -18.44707,-18.39 -30.19503,-40.0837 -35.32011,-65.2219 -1.9526,-9.57736 -1.9526,-35.49688 0,-45.07425 3.24795,-15.93097 11.0803,-34.09837 20.46065,-47.45913 17.84644,-25.41933 49.39702,-44.87281 81.67459,-50.35898 10.87309,-1.84809 34.13411,-1.88973 44.15562,-0.0791 3.99979,0.72268 7.7653,1.32201 8.36779,1.33186 0.6025,0.01 3.65938,-3.35694 6.79307,-7.48172 20.81327,-27.39586 48.91159,-47.43136 81.899,-58.39808 33.59185,-11.16767 66.06356,-12.41479 103.18876,-3.96312 4.64237,1.05686 8.57603,1.76553 8.74146,1.57483 0.16544,-0.1907 1.41377,-5.46009 2.77407,-11.70976 3.21651,-14.77761 11.70434,-40.20081 18.20966,-54.54254 32.33341,-71.28262 97.2028,-126.39824 174.93034,-148.62776 12.46784,-3.56571 29.74674,-6.9227 45.07181,-8.75668 12.42203,-1.48656 45.99519,-1.4849 58.17871,0.003 66.67307,8.14174 122.05507,34.99966 167.35432,81.15975 42.15985,42.96102 68.07854,95.7431 76.26438,155.30854 1.8333,13.33988 2.7007,45.02143 1.5549,56.79127 -0.4854,4.98659 -0.6822,9.58862 -0.4374,10.22672 0.2637,0.68716 2.0086,1.16018 4.2797,1.16018 6.382,0 23.4862,3.45263 32.0218,6.46388 40.9453,14.44496 70.6161,48.70584 78.2449,90.34913 1.9981,10.90678 1.9585,30.19337 -0.084,40.67747 -7.0925,36.41505 -29.3678,66.62469 -61.3544,83.20826 -9.5732,4.96329 -18.7915,8.35113 -30.923,11.36466 l -7.8447,1.94864 -394.97891,0.17094 c -318.77042,0.13797 -396.82053,-0.0564 -404.52384,-1.00723 z"
       id="path1459" />
    <path
       style="fill:#53536c;stroke-width:0.909042"
       d="m 75.847642,662.09214 c -31.362233,-18.80651 -53.97674,-50.80359 -59.895811,-84.74605 -2.067842,-11.85789 -1.869409,-32.0939 0.425119,-43.35334 8.482685,-41.62525 39.020823,-75.59732 80.460612,-89.5082 15.570008,-5.22668 35.688838,-7.58261 50.427298,-5.90507 4.74974,0.54062 11.30264,1.22979 14.56199,1.53148 l 5.9261,0.54854 4.97537,-6.7048 c 7.07544,-9.53481 22.60646,-24.90921 32.71525,-32.38533 27.15167,-20.08046 59.70681,-31.49383 95.46113,-33.46733 13.95008,-0.77 29.0293,0.58734 46.53338,4.18863 7.11395,1.46363 13.21018,2.36067 13.54717,1.99343 0.33699,-0.36724 1.52443,-4.96293 2.63877,-10.21265 9.99701,-47.09687 35.30555,-93.48035 69.95418,-128.20639 42.32968,-42.42428 90.51251,-66.86033 151.5524,-76.86021 13.9047,-2.27794 52.94158,-2.79462 68.47084,-0.90626 30.24743,3.6781 62.14464,12.95272 86.4761,25.14429 8.06349,4.04031 9.88239,5.61844 9.88239,8.57428 0,2.52835 -1.33637,2.78911 -18.63537,3.63632 -44.98466,2.20311 -86.39075,13.32272 -128.79661,34.58837 -61.16126,30.67107 -108.41227,75.44454 -135.35961,128.26219 -8.72957,17.11022 -12.28057,27.45438 -18.30095,53.31107 -0.68149,2.92694 -1.08829,3.36502 -2.6612,2.8658 -13.01273,-4.13009 -40.09816,-6.01704 -59.40868,-4.13881 -33.24124,3.2332 -65.49086,14.59466 -92.82318,32.70135 -18.72588,12.40525 -31.68386,24.88564 -42.8273,41.24885 l -6.03587,8.86317 h -9.63092 c -25.41338,0 -52.99016,6.6956 -76.85235,18.65966 -42.51485,21.31615 -69.70404,57.87068 -75.980806,102.15248 -1.282384,9.04705 -0.572342,32.74041 1.274026,42.51287 1.151997,6.09729 0.775315,9.39303 -1.073561,9.39303 -0.381702,0 -3.531661,-1.70162 -6.999907,-3.78137 z"
       id="path1461" />
  </g>
</svg>
