<?xml version="1.0" encoding="UTF-8" standalone="no"?>
<!-- Created with Inkscape (http://www.inkscape.org/) -->

<svg
   version="1.1"
   id="svg765"
   width="1092.6667"
   height="906.66669"
   viewBox="0 0 1092.6667 906.66669"
   sodipodi:docname="partly-cloudy.svg"
   inkscape:version="1.2.2 (b0a84865, 2022-12-01)"
   xmlns:inkscape="http://www.inkscape.org/namespaces/inkscape"
   xmlns:sodipodi="http://sodipodi.sourceforge.net/DTD/sodipodi-0.dtd"
   xmlns="http://www.w3.org/2000/svg"
   xmlns:svg="http://www.w3.org/2000/svg">
  <defs
     id="defs769" />
  <sodipodi:namedview
     id="namedview767"
     pagecolor="#ffffff"
     bordercolor="#000000"
     borderopacity="0.25"
     inkscape:showpageshadow="2"
     inkscape:pageopacity="0.0"
     inkscape:pagecheckerboard="0"
     inkscape:deskcolor="#d1d1d1"
     showgrid="false"
     inkscape:zoom="1.3610294"
     inkscape:cx="546.64506"
     inkscape:cy="571.62615"
     inkscape:window-width="3440"
     inkscape:window-height="1412"
     inkscape:window-x="1440"
     inkscape:window-y="28"
     inkscape:window-maximized="0"
     inkscape:current-layer="g771" />
  <g
     inkscape:groupmode="layer"
     inkscape:label="Image"
     id="g771">
    <path
       style="fill:#ffff00;stroke-width:0.666667"
       d="m 160.02107,811.77002 c -18.822,-1.75373 -32.01018,-5.283 -46.66666,-12.48847 C 97.777546,791.62362 87.940516,784.92149 77.167356,774.62662 42.661571,741.65282 29.456762,694.93135 42.017224,650.2579 c 10.799828,-38.41144 41.357672,-69.83362 80.670516,-82.95231 21.3119,-7.11177 49.42438,-8.6473 69.76563,-3.81067 1.33776,0.31809 2.70489,0.3918 3.03806,0.16381 0.33317,-0.22798 2.7143,-3.26452 5.29141,-6.74785 9.78563,-13.22669 20.32566,-23.77617 33.69864,-33.72885 42.6767,-31.76162 99.20395,-42.4542 152.85433,-28.91362 4.04356,1.02054 7.44571,1.76382 7.56031,1.65174 0.11461,-0.11209 0.79071,-3.01002 1.50245,-6.43986 7.36688,-35.50059 20.66605,-67.46365 40.31923,-96.90275 43.0609,-64.50222 110.32773,-107.15634 187.63252,-118.97839 27.90735,-4.26781 59.12664,-4.01824 86.91537,0.6948 66.72147,11.31617 127.45474,46.78247 169.36774,98.90549 43.7476,54.4045 65.12354,123.52289 59.62454,192.79389 -0.41974,5.2874 -0.59941,9.77722 -0.39927,9.97737 0.20013,0.20016 3.4686,0.65464 7.26313,1.00996 36.48123,3.41605 69.27627,22.69742 89.31227,52.51002 28.9034,43.00667 26.0133,98.99674 -7.2308,140.08687 -14.6308,18.08374 -38.67424,33.26787 -61.6722,38.94787 -16.33313,4.03387 15.45496,3.73153 -409.91696,3.899 -300.30159,0.11827 -390.90128,-0.0307 -397.59307,-0.6544 z m 21.05706,-289.61829 c -8.13598,-1.49862 -14.39363,-10.47667 -13.04882,-18.72154 0.63976,-3.92224 3.45254,-8.91108 6.29107,-11.158 1.30205,-1.03067 10.61736,-6.27411 20.7007,-11.6521 10.08333,-5.37798 18.69813,-10.13815 19.144,-10.57816 0.63564,-0.62728 0.4468,-1.80246 -0.87462,-5.44294 -0.92692,-2.55361 -2.56783,-8.08921 -3.64648,-12.30132 -1.07864,-4.21212 -2.18506,-7.87646 -2.45871,-8.14299 -0.27364,-0.26653 -6.94753,-0.0689 -14.83086,0.43923 -7.88333,0.5081 -26.33334,1.70364 -41,2.65675 -34.09615,2.21573 -37.78364,2.26331 -41.66667,0.53766 -6.77024,-3.00875 -10.653644,-8.67478 -10.653644,-15.54411 0,-7.35499 5.267984,-14.31185 12.409554,-16.38796 2.32192,-0.675 18.28645,-1.96595 48.58218,-3.92855 24.8181,-1.60774 45.22815,-3.02751 45.35569,-3.15504 0.12753,-0.12753 0.56506,-2.9236 0.97228,-6.2135 0.40723,-3.28989 1.48036,-9.41022 2.38473,-13.60073 0.90438,-4.19051 1.40369,-7.85975 1.10957,-8.15386 -0.29411,-0.29411 -8.32551,-3.34739 -17.84755,-6.78506 -21.6723,-7.82417 -21.579,-7.7836 -25.01046,-10.87719 -11.07132,-9.98117 -5.79326,-27.30292 8.93448,-29.32158 4.28344,-0.58712 7.93218,0.41175 28.3225,7.75348 10.18857,3.6685 18.86177,6.66999 19.27377,6.66999 0.412,0 3.06679,-3.46559 5.89953,-7.70132 4.36725,-6.53021 5.00727,-7.83253 4.20891,-8.56422 -0.51784,-0.4746 -10.99154,-9.09475 -23.27487,-19.15591 -53.48524,-43.80922 -50.1163,-40.87407 -52.6084,-45.83424 -1.7948,-3.57229 -2.22648,-7.05603 -1.37975,-11.13474 2.23649,-10.77313 14.12431,-16.11823 24.38167,-10.96268 2.48581,1.24941 17.47179,13.09023 40.60648,32.08423 20.16667,16.55721 37.00423,30.23384 37.41681,30.39252 0.41258,0.15867 2.77718,-1.22674 5.25466,-3.07869 2.47747,-1.85195 5.81437,-4.19468 7.41532,-5.20607 1.60096,-1.01138 2.91136,-2.2778 2.91202,-2.81425 6.6e-4,-0.53645 -3.4604,-7.20659 -7.69123,-14.82251 -8.83805,-15.9094 -9.64626,-17.87844 -9.62627,-23.45261 0.0331,-9.22226 6.96092,-16.36504 15.90801,-16.40154 9.84279,-0.0401 13.27363,3.29426 24.679,23.98536 4.54758,8.25 8.53037,15.17252 8.85065,15.38338 0.32029,0.21086 4.22743,-0.61409 8.68253,-1.83321 4.45512,-1.21913 10.82232,-2.68643 14.14935,-3.26067 3.32703,-0.57425 6.29777,-1.28792 6.60165,-1.58595 0.30387,-0.29803 -0.23285,-24.83162 -1.19272,-54.51908 -1.82724,-56.51434 -1.81397,-57.41129 0.92815,-62.74171 5.93119,-11.52967 23.45874,-11.59274 29.37023,-0.10568 2.23346,4.34 2.60459,7.60696 3.29404,28.99625 0.3782,11.73334 0.8425,25.68334 1.03176,31 0.18927,5.31667 0.67686,20.16667 1.08354,33 0.40668,12.83334 0.85643,23.45691 0.99946,23.60795 0.34674,0.36617 11.46122,2.02605 13.68862,2.04432 1.10668,0.009 1.88102,-0.41683 2.09496,-1.15227 1.93162,-6.64021 16.99005,-48.50121 18.20591,-50.61069 2.2129,-3.83929 6.58824,-7.3988 10.53544,-8.57099 4.20508,-1.24878 6.09177,-1.239 9.8783,0.0512 5.97234,2.03498 10.38686,7.42248 11.48851,14.02062 0.66889,4.00624 -0.63592,8.69246 -9.25103,33.22496 -4.23922,12.07164 -7.70766,22.34414 -7.70766,22.82777 0,0.826 13.7499,8.31802 16.06936,8.75585 0.70328,0.13275 14.50649,-15.15781 40.32044,-44.6651 45.5122,-52.02389 46.20707,-52.78016 50.6102,-55.08205 4.42293,-2.31225 11.32545,-2.45907 15.33333,-0.32615 5.73576,3.05245 8.96125,8.55058 8.98536,15.31634 0.012,3.37125 -0.37412,4.84017 -2.15202,8.1867 -1.5115,2.84508 -14.47688,18.13306 -42.87725,50.55825 -22.39082,25.56398 -40.92356,46.83884 -41.18386,47.27746 -0.28563,0.48128 1.51609,2.98519 4.5439,6.31482 2.75946,3.03452 5.0172,5.78883 5.0172,6.12068 0,0.33185 -3.675,4.39846 -8.16666,9.03692 -35.41946,36.57696 -62.49664,80.32064 -77.58833,125.34533 -2.03735,6.07828 -3.95504,11.31552 -4.26153,11.6383 -0.31849,0.33544 -2.93361,-0.01 -6.10369,-0.8055 -32.22628,-8.09008 -71.15889,-5.34174 -106.87979,7.54492 -9.9968,3.60644 -23.88774,10.10901 -31.83238,14.90126 -3.02553,1.82501 -7.45096,4.33386 -9.83429,5.57522 -2.38333,1.24136 -11.45815,6.0867 -20.16625,10.76744 -19.43764,10.44802 -22.53587,11.54824 -29.11003,10.3373 z"
       id="path1083" />
    <path
       style="fill:#ffff00;stroke-width:0.734738"
       d="m 178.13296,520.64553 c -1.63897,-0.74444 -4.20269,-2.78202 -5.69715,-4.52795 -4.57473,-5.34455 -5.37173,-11.24576 -2.3404,-17.32886 2.90764,-5.83488 1.40436,-4.83204 34.05431,-22.71753 l 10.54625,-5.77719 -0.42295,-2.60242 c -0.23263,-1.43134 -1.84358,-7.39659 -3.5799,-13.25613 l -3.15693,-10.6537 -6.96637,0.21776 c -3.8315,0.11977 -19.69569,1.04013 -35.25377,2.04523 -15.55808,1.0051 -33.58462,2.03057 -40.05898,2.2788 -11.06422,0.42422 -11.99082,0.35435 -15.42034,-1.16269 -4.4508,-1.9688 -6.63757,-3.93571 -8.65805,-7.78753 -2.079235,-3.96385 -2.071344,-10.00604 0.0183,-14.01014 2.0775,-3.98084 6.80656,-8.15074 10.25787,-9.045 3.15864,-0.81844 19.99728,-2.15462 61.20858,-4.85706 15.55808,-1.02022 29.34935,-2.03058 30.64727,-2.24522 1.97524,-0.32666 2.42211,-0.77491 2.74171,-2.75014 0.21001,-1.29792 1.21453,-7.03474 2.23225,-12.74848 2.19878,-12.34448 2.2329,-13.18101 0.56462,-13.84459 -0.70719,-0.2813 -8.7553,-3.25892 -17.8847,-6.61695 -19.52292,-7.18103 -21.70151,-8.21832 -24.89159,-11.85161 -3.16517,-3.60494 -4.43424,-6.79426 -4.41449,-11.09419 0.0483,-10.5273 10.10694,-18.1436 20.62825,-15.61958 2.1635,0.51902 12.34399,3.88808 22.62331,7.48682 17.98863,6.29772 18.738,6.49329 19.97783,5.21378 1.93026,-1.99202 9.49353,-13.55283 9.49353,-14.51129 0,-0.4586 -14.13452,-12.44613 -31.41005,-26.63897 -43.28989,-35.56513 -42.62961,-34.9827 -44.70069,-39.43074 -5.29841,-11.37932 2.03853,-23.21204 14.39275,-23.21204 7.15705,0 6.78047,-0.26549 52.63282,37.10656 36.89846,30.07415 33.0086,27.16638 35.07944,26.22284 0.96575,-0.44003 4.61849,-2.83447 8.1172,-5.32099 5.46675,-3.88522 6.2917,-4.74527 5.86648,-6.11604 -0.27214,-0.8773 -3.56319,-7.23909 -7.31345,-14.13732 -8.96373,-16.48792 -9.34283,-17.42063 -9.40391,-23.13726 -0.0988,-9.24629 5.71316,-15.47306 14.92831,-15.99376 9.9239,-0.56075 12.70237,2.29642 27.20722,27.97795 5.05871,8.95668 6.40904,10.83738 7.78114,10.83738 0.91312,0 6.39553,-1.13184 12.18313,-2.5152 5.78761,-1.38336 11.84545,-2.8048 13.46187,-3.15876 l 2.93895,-0.64356 -0.17886,-14.29127 c -0.0984,-7.8602 -0.68929,-31.64945 -1.31313,-52.86501 -1.23992,-42.16665 -1.05106,-46.61037 2.18909,-51.50656 5.35754,-8.09579 16.95534,-9.59444 24.58261,-3.17652 1.14258,0.96142 2.7944,3.41471 3.67072,5.45175 1.97444,4.58972 2.46315,12.41603 4.12943,66.13031 0.65814,21.21556 1.41957,41.05348 1.69209,44.08428 l 0.49548,5.51053 7.20111,1.03846 c 6.20481,0.89478 7.33246,0.89478 8.15056,0 0.5222,-0.57115 2.5338,-5.66731 4.47022,-11.32479 8.18614,-23.91684 14.58782,-40.27044 16.71031,-42.68782 1.17813,-1.34181 3.94166,-3.32013 6.14117,-4.39625 7.73247,-3.78314 15.6361,-1.22327 20.49671,6.63859 3.89262,6.29616 3.50536,8.62626 -6.14279,36.96068 -4.57624,13.43938 -8.16154,24.84619 -7.96733,25.34846 0.41851,1.08234 11.90148,7.58315 14.58413,8.25645 1.62689,0.40832 2.62115,-0.33223 7.82025,-5.82473 3.27602,-3.46088 16.62481,-18.44365 29.664,-33.29503 47.22989,-53.79398 51.15995,-58.07816 55.18877,-60.16154 3.07959,-1.59251 9.35911,-2.09985 12.6299,-1.02039 3.67274,1.21211 7.68953,4.85468 9.32616,8.45729 1.70374,3.75032 1.78739,10.65225 0.16749,13.81912 -2.1872,4.27595 -12.13402,16.03714 -58.18687,68.80061 -14.61609,16.74586 -26.5747,30.68937 -26.5747,30.98556 0,0.52176 2.22526,3.43511 7.15886,9.37253 l 2.38307,2.86793 -8.5127,9.0846 c -37.69688,40.22943 -61.14256,78.64274 -78.52998,128.6632 -1.6093,4.62965 -3.14425,7.89844 -3.70894,7.89844 -0.52987,0 -4.70947,-0.80447 -9.28799,-1.78772 -11.60214,-2.49159 -20.59598,-3.35545 -34.93437,-3.35545 -34.46455,0 -69.18526,9.22415 -98.6844,26.2172 -14.15375,8.15329 -45.31366,24.51407 -49.47153,25.97544 -5.10788,1.79528 -9.5006,1.81415 -13.36821,0.0575 z"
       id="path1094" />
    <path
       style="fill:#ffff00;stroke-width:0.734738"
       d="m 180.01081,811.5256 c -27.79294,-0.53721 -31.85094,-0.9388 -44.73917,-4.42756 C 122.51015,803.6436 106.02123,795.87688 93.843037,787.58406 76.589586,775.83522 60.851557,757.86394 51.10292,738.77905 30.592628,698.62611 34.042969,650.60025 60.076552,613.8736 c 6.348617,-8.95626 19.896794,-22.49964 28.826746,-28.81653 14.041352,-9.93261 32.128082,-17.85566 48.138972,-21.08772 16.15831,-3.2618 35.80649,-3.71499 49.94855,-1.15208 9.01844,1.63438 8.34995,1.91569 14.40574,-6.06225 33.84902,-44.59292 87.47791,-69.44566 145.76714,-67.55153 14.67174,0.47676 23.99247,1.6978 38.13391,4.99564 9.81529,2.28896 10.68396,2.22176 10.71492,-0.82899 0.0272,-2.68025 6.87974,-28.47943 9.9289,-37.38139 25.96177,-75.79496 83.77329,-136.40222 157.96998,-165.60939 23.89026,-9.40428 48.07032,-15.31631 74.57591,-18.23382 10.81774,-1.19072 42.5638,-1.19074 54.00324,-3e-5 56.22917,5.85279 108.0009,27.86099 152.09077,64.65385 9.66907,8.06885 26.13955,24.87944 34.27854,34.98651 34.83723,43.26109 54.89536,91.81619 60.54902,146.57179 1.01923,9.87116 1.17264,16.37914 0.82614,35.03409 l -0.42563,22.91092 1.98078,0.37836 c 1.08947,0.2081 4.12988,0.59408 6.75657,0.85774 27.41227,2.7516 52.82555,14.91117 72.79685,34.83126 17.1522,17.1082 27.2508,35.6872 32.3674,59.54787 1.399,6.52429 1.6567,9.98229 1.6701,22.40951 0.013,12.57042 -0.2256,15.81004 -1.6543,22.40951 -8.8662,40.95491 -35.1182,72.04296 -73.76427,87.35278 -9.98825,3.95689 -19.37041,6.06465 -30.31367,6.81016 -12.15749,0.82822 -729.00881,1.41105 -769.63805,0.62574 z"
       id="path1096" />
    <path
       style="fill:#d5e5ff;stroke-width:0.734738"
       d="m 180.01081,811.52097 c -15.2352,-0.29732 -28.88062,-0.90378 -31.59373,-1.40417 C 111.7827,803.36031 79.206827,782.38963 59.389622,752.8055 37.05894,719.46912 31.768079,680.53844 44.569825,643.75997 c 13.907972,-39.95658 50.191804,-71.26314 92.458815,-79.77569 16.5601,-3.33521 36.35635,-3.78631 50.26237,-1.14536 3.39795,0.64532 6.86959,0.98135 7.71475,0.74674 0.84516,-0.23462 4.34703,-4.07784 7.78193,-8.54049 14.92604,-19.39206 35.38812,-36.12608 57.81942,-47.28511 27.26233,-13.56235 55.29602,-19.57239 86.55659,-18.55657 14.46468,0.47004 23.79304,1.67667 37.83311,4.89376 5.89255,1.35021 9.4764,1.85572 10.01096,1.41208 0.45795,-0.38007 1.05353,-2.08997 1.32353,-3.7998 2.13777,-13.53838 11.07362,-41.81159 18.48975,-58.50194 50.6563,-114.00442 172.85263,-179.22254 296.80166,-158.40774 68.84119,11.56052 132.44636,50.18585 174.21408,105.79443 25.47322,33.91452 42.74684,73.49781 50.49921,115.72124 3.49948,19.06028 4.36882,31.78398 3.89918,57.06804 l -0.42542,22.90272 2.7153,0.41167 c 1.49343,0.22641 5.52574,0.76803 8.96064,1.20359 26.73999,3.39075 50.4086,15.06903 69.8579,34.46849 17.1522,17.1082 27.2508,35.6872 32.3674,59.54787 1.399,6.52429 1.6567,9.98229 1.6701,22.40951 0.013,12.57042 -0.2256,15.81004 -1.6543,22.40951 -8.0416,37.14589 -30.1437,66.00593 -63.30432,82.66019 -14.04672,7.05468 -26.04749,10.47721 -40.3042,11.49445 -11.8403,0.84483 -729.03319,1.43098 -770.10747,0.62941 z"
       id="path1098" />
  </g>
</svg>
