<?xml version="1.0" encoding="UTF-8" standalone="no"?>
<!-- Created with Inkscape (http://www.inkscape.org/) -->

<svg
   version="1.1"
   id="svg2414"
   width="1095.3333"
   height="994.66669"
   viewBox="0 0 1095.3333 994.66669"
   sodipodi:docname="rainy.svg"
   inkscape:version="1.2.2 (b0a84865, 2022-12-01)"
   xmlns:inkscape="http://www.inkscape.org/namespaces/inkscape"
   xmlns:sodipodi="http://sodipodi.sourceforge.net/DTD/sodipodi-0.dtd"
   xmlns="http://www.w3.org/2000/svg"
   xmlns:svg="http://www.w3.org/2000/svg">
  <defs
     id="defs2418" />
  <sodipodi:namedview
     id="namedview2416"
     pagecolor="#ffffff"
     bordercolor="#000000"
     borderopacity="0.25"
     inkscape:showpageshadow="2"
     inkscape:pageopacity="0.0"
     inkscape:pagecheckerboard="0"
     inkscape:deskcolor="#d1d1d1"
     showgrid="false"
     inkscape:zoom="1.0325067"
     inkscape:cx="547.21196"
     inkscape:cy="496.84909"
     inkscape:window-width="3440"
     inkscape:window-height="1412"
     inkscape:window-x="1440"
     inkscape:window-y="28"
     inkscape:window-maximized="0"
     inkscape:current-layer="g2420" />
  <g
     inkscape:groupmode="layer"
     inkscape:label="Image"
     id="g2420">
    <path
       style="fill:#0044aa;stroke-width:0.666667"
       d="m 466.97483,940.99762 c -4.15865,-0.95353 -6.82058,-2.35413 -9.06816,-4.7714 -4.13752,-4.44986 -5.90417,-10.9522 -4.61977,-17.0034 0.96211,-4.5328 6.5214,-18.8854 21.38986,-55.2228 18.92324,-46.247 19.94026,-48.464 24.16488,-52.67727 6.78822,-6.77 17.92086,-7.12433 24.27265,-0.77253 3.56567,3.56567 5.22713,7.7874 5.16196,13.11647 -0.0723,5.9122 -0.40996,6.96573 -10.46949,32.66666 -21.38548,54.6374 -29.06057,72.98987 -32.33849,77.32687 -4.65891,6.1642 -11.59978,8.91807 -18.49344,7.3374 z m 181.53558,-2.0952 c -4.21699,-1.45626 -8.18514,-4.97146 -10.28096,-9.10733 -1.36252,-2.68887 -1.71726,-4.3602 -1.71748,-8.09194 -3.2e-4,-5.41693 2.18084,-12.01193 11.47739,-34.70313 3.00445,-7.33333 7.71831,-18.88333 10.47523,-25.66667 17.01766,-41.87146 20.20719,-48.7176 24.42792,-52.4328 9.9456,-8.75446 24.18714,-4.93813 28.1096,7.53254 2.30927,7.34173 1.85307,8.91486 -14.76166,50.90026 -21.57307,54.51507 -25.23174,62.87501 -29.24407,66.82234 -5.05333,4.97153 -12.38417,6.85387 -18.48597,4.74673 z m 152.8229,0.51374 c -11.23267,-3.69594 -15.76047,-13.4176 -11.96793,-25.69641 0.751,-2.43146 2.66866,-7.78806 4.26146,-11.9036 3.02667,-7.8204 26.8294,-65.93146 31.73753,-77.4828 3.4456,-8.1094 7.7612,-14.7946 10.91247,-16.90446 9.27413,-6.2094 19.9478,-3.71114 24.884,5.82426 2.4862,4.8028 2.83833,9.24354 1.22433,15.4402 -1.6046,6.16047 -32.15506,83.65794 -37.8092,95.91087 -3.21699,6.97127 -6.12806,10.57727 -10.42846,12.9178 -3.57573,1.9462 -9.8414,2.87234 -12.8142,1.89414 z M 276.67704,924.71369 c -8.12336,-3.2928 -12.91933,-13.06847 -10.71633,-21.84327 2.26904,-9.03787 37.9093,-96.38927 41.83613,-102.53707 4.36414,-6.8324 9.41715,-9.93946 16.20315,-9.96313 12.52507,-0.044 19.89315,11.77173 15.79971,25.33653 -3.1353,10.38974 -36.86638,94.4344 -40.15906,100.06067 -4.88264,8.34307 -14.86118,12.23054 -22.9636,8.94627 z M 79.666664,910.85362 c -4.114653,-1.66293 -7.214393,-4.4154 -9.352399,-8.3046 -1.719407,-3.12767 -1.94458,-4.18213 -1.89678,-8.88233 0.04713,-4.63334 0.45132,-6.38334 3.079593,-13.33334 6.8036,-17.99086 33.035162,-81.82193 37.225112,-90.58246 5.82871,-12.18694 16.62604,-16.66374 26.53758,-11.00301 5.74195,3.27941 9.16962,10.36174 8.34959,17.25214 -0.48775,4.09847 -2.43976,10.50973 -5.48035,18 -1.11633,2.75 -8.0309,20.15 -15.36571,38.66667 -14.49027,36.5806 -19.14988,47.56213 -21.80988,51.40053 -4.578136,6.60627 -14.167736,9.66347 -21.286756,6.7864 z m 489.452606,-75.2154 c -6.88341,-2.52527 -11.29266,-9.07467 -11.33853,-16.84207 -0.0145,-2.45453 0.36858,-5.6628 0.85126,-7.12946 1.34644,-4.0912 9.66114,-25.3824 14.7097,-37.66667 2.48641,-6.05 8.33048,-20.3 12.98683,-31.66667 10.23293,-24.97973 13.51253,-31.8578 16.81711,-35.26913 6.55497,-6.7668 16.57737,-7.6598 23.83554,-2.12374 3.02573,2.30787 5.76282,7.78647 6.13195,12.27387 0.5226,6.3528 -1.02514,10.76333 -23.67041,67.45234 -16.67664,41.74746 -17.92655,44.34633 -23.29847,48.44366 -4.66263,3.55627 -11.46749,4.56667 -17.02498,2.52787 z m 185.88071,-0.89873 c -8.72867,-2.2726 -13.6244,-8.7174 -13.652,-17.9718 -0.0133,-4.4132 0.41053,-6.03274 4.27386,-16.33334 2.35874,-6.28886 8.22174,-21.03433 13.02887,-32.76767 4.8072,-11.73333 11.01253,-26.88333 13.7896,-33.66666 7.9182,-19.34114 11.66773,-26.72834 15.1004,-29.74987 8.9538,-7.88147 21.95387,-5.86653 26.861,4.16327 3.25527,6.6536 2.82627,12.44386 -1.8218,24.5866 -11.4224,29.8404 -32.98613,83.1768 -36.26113,89.68927 -2.3488,4.6708 -6.98747,9.4892 -10.58047,10.99046 -2.84347,1.188 -8.21093,1.71774 -10.73833,1.05974 z m 151.33333,0.007 c -10.77367,-2.81987 -15.9724,-13.55413 -12.3554,-25.51127 2.52866,-8.359 34.2932,-86.4518 39.20713,-96.39033 2.95913,-5.9848 6.6064,-9.85134 11.33453,-12.01594 8.721,-3.9926 19.2794,0.58214 22.56633,9.77754 2.1132,5.91186 0.94467,12.46973 -4.88113,27.39346 -16.05393,41.12467 -31.29986,78.82947 -34.29053,84.80447 -1.0474,2.09247 -2.82707,4.85547 -3.95487,6.13994 -3.889,4.42926 -12.2968,7.197 -17.62606,5.80213 z m -523.0043,-14.03607 c -5.5852,-1.699 -10.68797,-6.72573 -12.28439,-12.10146 -1.85885,-6.25947 -1.364,-9.08154 4.07955,-23.26547 4.05796,-10.5736 24.97627,-61.8828 31.53228,-77.34354 6.11206,-14.4138 8.61083,-17.82586 15.34354,-20.95146 8.23664,-3.82374 16.8703,-0.7832 21.57996,7.5998 1.76405,3.13993 2.0448,4.3012 2.01479,8.33333 -0.0427,5.72953 -0.47583,7.1426 -8.58879,28.01833 -15.46992,39.80614 -30.13048,75.72194 -32.6965,80.10074 -4.40552,7.5178 -13.76472,11.8046 -20.98044,9.60973 z m -200.465,-15.3546 c -4.8558,-2.46073 -7.75572,-5.97833 -9.29939,-11.28033 -1.26429,-4.3424 -0.86987,-8.1918 1.57185,-15.3406 1.69907,-4.97447 11.98546,-30.9914 13.92528,-35.22067 0.54298,-1.1838 1.75175,-4.1838 2.68615,-6.66667 0.9344,-2.48286 2.88877,-7.36426 4.34305,-10.8476 1.45428,-3.48333 3.51611,-8.43333 4.58183,-11 15.03683,-36.21433 15.74649,-37.5032 22.75107,-41.32106 6.60596,-3.60054 15.82878,-2.13647 20.34396,3.22953 3.48829,4.1456 4.55104,7.09947 4.47018,12.42487 -0.10618,6.9934 0.20038,6.1296 -21.76711,61.33333 -14.28767,35.90454 -18.7179,46.05974 -21.72741,49.80467 -3.1169,3.8786 -7.74287,6.1942 -13.23735,6.6262 -4.10202,0.32247 -4.87704,0.16627 -8.64211,-1.74167 z m 352.58347,-95.8936 c -4.29834,-1.80613 -7.24378,-4.45147 -9.27326,-8.32827 -1.53748,-2.93693 -1.81438,-4.28313 -1.81023,-8.80066 0.005,-4.96634 0.31168,-6.13614 4.46331,-17 8.83885,-23.1293 21.1609,-52.32893 22.57664,-53.50001 1.26751,-1.04845 3.26266,-1.16666 19.69082,-1.16666 15.54787,0 18.33716,0.1479 18.6601,0.98948 0.58602,1.52714 -27.819,72.65439 -31.42014,78.67719 -3.91875,6.554 -8.84344,9.72986 -15.66807,10.104 -3.12114,0.17113 -5.14061,-0.1016 -7.21917,-0.97507 z m 186.3755,-0.89833 c -3.81747,-0.8324 -7.3796,-2.88294 -9.80287,-5.64287 -3.25053,-3.70213 -4.25233,-6.57687 -4.27066,-12.2544 -0.0187,-5.85773 0.57253,-7.64933 11.11359,-33.66667 12.88147,-31.79374 14.41587,-35.32625 15.8546,-36.5 1.28454,-1.04798 3.28974,-1.16667 19.71047,-1.16667 15.2476,0 18.34113,0.15837 18.64667,0.95458 0.48793,1.27143 -24.601,64.60509 -29.92994,75.55436 -2.76813,5.6876 -5.85093,9.09727 -9.9954,11.05513 -4.01573,1.89714 -7.7496,2.44654 -11.32646,1.66654 z m 151.70799,0.007 c -5.32833,-0.9298 -10.02753,-4.46253 -12.4786,-9.3812 -2.18173,-4.37813 -2.34866,-11.0522 -0.423,-16.91113 3.00854,-9.15353 24.3484,-61.53537 25.56374,-62.74976 0.58373,-0.58333 6.06093,-0.85986 19.80686,-1 l 19,-0.19371 -0.1218,1.806 c -0.117,1.7357 -8.46866,23.26404 -21.02393,54.194 -10.15233,25.0104 -11.92773,28.17514 -17.9838,32.0576 -2.93433,1.8812 -8.45593,2.85587 -12.33947,2.1782 z M 348.81042,694.10782 c -5.06402,-1.79687 -7.91254,-4.44627 -10.50706,-9.77274 -3.35093,-6.87933 -2.21663,-11.9464 8.75339,-39.10278 7.49261,-18.54804 9.34153,-22.56119 10.40143,-22.57667 0.48133,-0.007 9.19261,-0.20118 19.35841,-0.43146 16.13201,-0.36543 18.53243,-0.29057 18.86976,0.5885 0.46416,1.2096 -19.39614,51.35195 -23.83962,60.18908 -4.81613,9.57827 -14.36615,14.18247 -23.03631,11.10607 z M 152.24314,680.64855 c -7.2147,-2.22727 -12.18655,-8.701 -12.75201,-16.60409 -0.26895,-3.75894 0.008,-5.3692 1.84763,-10.73258 3.04972,-8.89256 10.59032,-27.48645 11.53644,-28.44698 0.57626,-0.58503 6.01334,-0.83161 19.99576,-0.90681 10.56237,-0.0568 19.39771,0.0901 19.6341,0.3265 0.59548,0.59548 -13.71576,36.14163 -17.94441,44.57023 -2.52636,5.03553 -5.88193,8.68106 -9.59882,10.4282 -3.46969,1.63093 -9.69419,2.2992 -12.71869,1.36553 z m 69.42352,-83.44938 c -21.87701,-1.91772 -34.12435,-5.10946 -50,-13.03033 -35.38129,-17.65288 -59.40382,-46.88983 -68.31866,-83.14822 -11.448389,-46.56277 6.69165,-94.88644 46.31866,-123.38936 6.84636,-4.92445 23.22465,-13.28986 31.79155,-16.23792 7.94555,-2.73424 20.29712,-5.25094 30.0552,-6.12392 11.30048,-1.01097 22.88047,-0.27473 38.51427,2.44865 2.35954,0.41103 2.36431,0.40678 7.64043,-6.82006 6.55964,-8.9849 21.72574,-24.29545 30.69179,-30.98412 24.02816,-17.92499 51.31926,-29.05517 80.68609,-32.90636 22.89913,-3.00302 49.06196,-1.36336 70.02874,4.3888 2.7699,0.7599 5.17586,1.24196 5.34658,1.07124 0.17072,-0.17072 1.04054,-3.90894 1.93292,-8.30714 5.56066,-27.40623 18.51048,-60.41036 32.41843,-82.62217 43.92438,-70.14978 114.99462,-114.982145 197.56065,-124.624792 13.83114,-1.6153 43.54067,-1.631966 57,-0.032 44.82813,5.328961 82.36827,18.869381 118.72886,42.824542 29.6188,19.51347 53.99447,43.68555 73.5752,72.96064 14.19733,21.22626 22.7118,38.33266 30.90813,62.09747 12.205,35.38733 16.4166,73.40195 12.57974,113.54663 -0.13707,1.43417 0.0153,1.46943 13.041,3.01253 3.57473,0.4235 9.72573,1.63438 13.66886,2.69084 41.9534,11.24038 74.0453,44.3513 83.1215,85.76084 3.5275,16.09433 3.1712,36.07977 -0.9206,51.61989 -3.5242,13.38488 -10.5338,28.58715 -17.908,38.83822 -14.8946,20.70538 -39.2987,37.35523 -63.58396,43.38058 -16.18907,4.01661 13.81826,3.72093 -395.21072,3.89432 -205.88333,0.0873 -376.73333,-0.0517 -379.66666,-0.30882 z M 73.333331,502.2437 C 40.720463,484.12308 17.634394,450.56974 12.618074,414.00001 c -1.022523,-7.45434 -1.021923,-22.81103 0.0012,-30.33333 6.574341,-48.33727 43.43148,-86.94931 92.969636,-97.39627 10.9294,-2.30487 31.2204,-2.9426 41.74443,-1.31198 3.85,0.59652 8.23414,1.26008 9.74254,1.47458 l 2.74254,0.39 4.66118,-6.24483 c 11.16626,-14.96005 23.08161,-26.24663 38.54591,-36.51187 18.16994,-12.06124 38.02076,-20.14527 60.04178,-24.45136 23.56596,-4.60819 52.49798,-3.80418 75.8172,2.10694 3.65367,0.92616 6.86498,1.44262 7.13623,1.14768 0.27126,-0.29492 1.14272,-3.68623 1.9366,-7.53623 6.49702,-31.50821 20.1548,-63.56414 38.77154,-91 15.46106,-22.78529 38.92849,-46.813032 61.60446,-63.075354 22.17331,-15.901833 43.51386,-26.805903 69.06268,-35.287951 25.75703,-8.551173 47.5003,-12.385293 74.27065,-13.096583 42.0411,-1.117034 81.28233,7.070362 118.65233,24.755948 9.12686,4.319332 11.681,6.358651 11.681,9.326538 0,3.964363 -0.78154,4.179053 -16.66667,4.578448 -41.414,1.041259 -82.21754,11.691211 -124.33333,32.451696 -60.7016,29.922138 -108.18279,75.333738 -133.30659,127.496058 -7.6448,15.87224 -11.55134,27.29173 -14.77098,43.17823 -0.92818,4.57988 -1.74044,8.37059 -1.80502,8.42381 -0.0646,0.0532 -2.90019,-0.60973 -6.30138,-1.47322 -12.13784,-3.08156 -20.03909,-3.92422 -36.48269,-3.89081 -16.87321,0.0343 -27.14319,1.22044 -42.66666,4.92794 -28.37955,6.77793 -56.19681,20.2029 -77.36616,37.3379 -11.40122,9.22844 -24.55213,24.09884 -30.08595,34.01972 -1.07066,1.91946 -2.45572,3.48911 -3.21456,3.64298 -0.73333,0.1487 -6.43333,0.42876 -12.66666,0.62234 -24.487,0.76046 -47.47,6.47079 -69,17.14365 -43.19716,21.4137 -69.604773,57.43754 -74.712432,101.91866 -0.97072,8.45372 -0.424194,25.81507 1.0703,34 1.911606,10.46935 1.917933,10.59026 0.628593,12.01497 -1.5866,1.75317 -1.945147,1.69648 -6.98646,-1.10461 z"
       id="path2424" />
    <path
       style="fill:#80b3ff;stroke-width:0.968517"
       d="m 211.87021,595.60458 c -28.35965,-3.86627 -53.68931,-16.25116 -74.44327,-36.3989 -47.283557,-45.90242 -49.093515,-118.79939 -4.13303,-166.45987 24.09196,-25.53874 64.25685,-40.52391 98.66585,-36.81138 5.32684,0.57474 12.30016,1.27095 15.49627,1.54714 l 5.8111,0.50217 4.84258,-6.54658 c 6.86936,-9.28651 22.80929,-25.17113 32.24548,-32.13357 15.76232,-11.63014 35.06191,-21.0637 54.66751,-26.72125 26.60591,-7.67761 60.00343,-8.41918 88.56065,-1.96644 5.71784,1.29199 10.69553,2.02475 11.06155,1.62836 0.36601,-0.3964 1.37732,-3.98947 2.24735,-7.9846 11.18394,-51.35655 34.90369,-94.7936 71.66317,-131.23402 41.04623,-40.68994 91.07208,-65.49754 150.68964,-74.726327 15.70793,-2.431584 55.88637,-2.438324 71.67024,-0.01202 58.22502,8.95037 107.72921,33.027167 148.38046,72.166157 43.81358,42.18369 71.15651,96.89775 78.80739,157.69606 1.36968,10.88424 1.87548,38.52981 1.05992,57.93157 l -0.16208,3.85583 5.32685,0.74964 c 18.60885,2.61882 31.17966,6.15845 43.09896,12.13561 40.6626,20.39098 65.4387,61.99943 63.161,106.07098 -0.9368,18.12549 -4.5665,31.10166 -13.5304,48.37153 -13.5471,26.09957 -39.2036,46.73601 -69.0009,55.49991 -8.30545,2.44277 -10.22441,2.60251 -40.67771,3.38605 -17.57858,0.45229 -190.38617,0.80389 -384.01688,0.78134 -287.14242,-0.0334 -353.79566,-0.27818 -361.4917,-1.32739 z"
       id="path2504" />
    <path
       style="fill:#535d6c;stroke-width:0.968517"
       d="m 69.821356,499.32335 c -28.31412,-17.01728 -48.875824,-46.42928 -55.698524,-79.67264 -2.006698,-9.77757 -2.022163,-30.89948 -0.03031,-41.39967 8.566206,-45.15737 44.791336,-81.54651 90.684808,-91.09539 4.62545,-0.9624 13.56002,-2.04614 19.85459,-2.40832 10.35666,-0.59591 15.01377,-0.29982 31.29927,1.98988 l 4.35833,0.61277 4.7342,-6.46467 c 11.58511,-15.8198 30.0683,-32.02849 48.42363,-42.46476 17.61132,-10.01324 41.18414,-17.69223 61.59582,-20.06522 16.05376,-1.86635 41.18971,-0.76232 57.39645,2.52098 7.32235,1.48342 13.56663,2.44387 13.87617,2.13431 0.30955,-0.30954 1.62832,-5.27704 2.93062,-11.03888 8.09001,-35.79338 26.60388,-74.15702 49.47954,-102.52935 44.87328,-55.65565 110.33101,-90.093136 181.443,-95.457657 42.99263,-3.243263 89.35221,5.139207 126.7988,22.927025 12.09545,5.745555 14.57722,7.488129 14.57722,10.235383 0,2.71222 -2.97314,3.358645 -18.60817,4.045827 -26.52651,1.16588 -51.0569,5.502254 -74.8537,13.232308 -70.57604,22.925639 -129.76758,65.923744 -165.96582,120.561424 -13.46186,20.31934 -25.24463,47.85564 -29.78102,69.59815 l -1.5884,7.61309 -3.02664,-0.54164 c -1.66465,-0.29789 -6.29538,-1.31028 -10.29051,-2.24976 -5.84845,-1.37527 -11.51012,-1.6993 -29.0555,-1.66288 -19.84338,0.0412 -22.96058,0.2831 -34.8666,2.70581 -7.19124,1.46332 -18.30497,4.3849 -24.69718,6.4924 -14.84321,4.89376 -39.96989,17.39337 -51.81564,25.77641 -12.11082,8.57063 -29.07132,25.59442 -36.20018,36.33528 l -5.62466,8.47452 -5.96392,8.2e-4 c -9.29682,9.6e-4 -26.34416,1.8216 -36.63139,3.91155 -28.71503,5.83376 -56.18452,19.97019 -76.27354,39.25211 -21.217909,20.36546 -33.386765,44.27065 -37.618396,73.89969 -1.387827,9.7173 -1.421916,12.73402 -0.290026,25.6657 1.651886,18.87254 1.739153,23.1164 0.484126,23.54366 -0.563655,0.19189 -4.639055,-1.82333 -9.056446,-4.47826 z"
       id="path2575" />
    <path
       style="fill:#afc6e9;stroke-width:0.968517"
       d="m 215.49497,595.12045 c -19.3485,-1.42712 -40.94739,-9.08079 -58.111,-20.59193 -26.53744,-17.79789 -44.75784,-42.8711 -52.52587,-72.28115 -3.29681,-12.48184 -4.16489,-36.05883 -1.79309,-48.70048 4.47843,-23.86997 15.85678,-45.39464 32.91508,-62.26613 13.72185,-13.57158 28.3007,-22.35687 48.07981,-28.97313 20.45324,-6.84177 37.73999,-7.89354 66.41684,-4.04098 2.77088,0.37225 3.41174,-0.12783 7.74814,-6.04607 2.60008,-3.54854 9.84859,-11.5543 16.10781,-17.79058 18.30374,-18.23666 39.3684,-30.96477 65.19791,-39.39521 19.33072,-6.30933 27.42903,-7.39443 54.65571,-7.32347 21.8262,0.0568 24.73813,0.27013 36.31938,2.65967 6.92489,1.42881 13.0992,2.59951 13.72067,2.60157 0.63096,0.002 2.04578,-3.95248 3.20383,-8.95503 14.41995,-62.29164 45.58864,-112.06893 94.45492,-150.84721 38.16862,-30.28904 89.91334,-51.103373 137.52938,-55.32122 18.2934,-1.620437 53.00214,-0.600795 67.79617,1.991656 44.48708,7.795749 86.13148,25.995344 120.54512,52.681074 12.13048,9.40647 34.82651,31.73413 43.97776,43.26396 27.58928,34.76029 46.12895,75.98712 53.94179,119.95089 2.40167,13.51448 3.93498,43.8463 3.1244,61.80685 l -0.5755,12.75157 4.7467,0.6547 c 18.35709,2.53198 31.76027,6.35648 44.55977,12.71487 32.1131,15.95267 55.6694,47.80484 61.3813,82.99786 1.4181,8.7373 1.1967,27.26693 -0.4374,36.59718 -1.9185,10.95436 -5.0969,19.91266 -11.52,32.46773 -13.4284,26.24867 -36.5881,45.59011 -66.6503,55.66187 -8.12263,2.72133 -10.33359,3.01416 -28.76774,3.81001 -23.80407,1.02768 -742.05502,0.95275 -756.04159,-0.0788 z"
       id="path2577" />
  </g>
</svg>
