<?xml version="1.0" encoding="UTF-8" standalone="no"?>
<!-- Created with Inkscape (http://www.inkscape.org/) -->

<svg
   version="1.1"
   id="svg2969"
   width="1428"
   height="1260.6667"
   viewBox="0 0 1428 1260.6667"
   sodipodi:docname="snow.svg"
   inkscape:version="1.2.2 (b0a84865, 2022-12-01)"
   xmlns:inkscape="http://www.inkscape.org/namespaces/inkscape"
   xmlns:sodipodi="http://sodipodi.sourceforge.net/DTD/sodipodi-0.dtd"
   xmlns="http://www.w3.org/2000/svg"
   xmlns:svg="http://www.w3.org/2000/svg">
  <defs
     id="defs2973" />
  <sodipodi:namedview
     id="namedview2971"
     pagecolor="#ffffff"
     bordercolor="#000000"
     borderopacity="0.25"
     inkscape:showpageshadow="2"
     inkscape:pageopacity="0.0"
     inkscape:pagecheckerboard="0"
     inkscape:deskcolor="#d1d1d1"
     showgrid="false"
     inkscape:zoom="0.81464828"
     inkscape:cx="714.41874"
     inkscape:cy="629.71961"
     inkscape:window-width="3440"
     inkscape:window-height="1412"
     inkscape:window-x="1440"
     inkscape:window-y="28"
     inkscape:window-maximized="0"
     inkscape:current-layer="g2975" />
  <g
     inkscape:groupmode="layer"
     inkscape:label="Image"
     id="g2975">
    <path
       style="fill:#aaeeff;stroke-width:0.666667"
       d="m 564.31161,1202.0016 c -3.44996,-1.7078 -4.97828,-4.3176 -4.97828,-8.5011 0,-3.7167 1.2499,-5.9323 10.50851,-18.6272 2.89074,-3.9636 5.79935,-8.0407 6.46359,-9.0601 l 1.20769,-1.8535 -4.36339,-4.5197 c -5.00804,-5.1874 -6.32612,-8.4045 -5.18292,-12.65 1.0763,-3.9971 4.75599,-6.79 8.94596,-6.79 3.4085,0 5.40584,0.9544 8.96494,4.2835 1.74584,1.633 3.47961,2.7623 3.85284,2.5095 1.03566,-0.7015 15.7773,-21.5074 15.46204,-21.8226 -0.15185,-0.1518 -7.34764,0.7886 -15.99064,2.0899 -17.55423,2.6429 -19.40088,2.5593 -22.8443,-1.0349 -2.64889,-2.7648 -3.16461,-8.229 -1.09303,-11.5808 1.99577,-3.2292 4.99049,-4.4129 15.00941,-5.9324 4.79928,-0.728 13.01152,-1.9703 18.24942,-2.7609 5.2379,-0.7905 9.56863,-1.733 9.62384,-2.0943 0.0876,-0.5735 -9.69636,-7.9772 -21.6364,-16.3725 l -3.82244,-2.6877 -2.17756,3.1631 c -5.41858,7.8708 -9.018,10.2521 -14.0655,9.3051 -5.09677,-0.9561 -8.49113,-6.7622 -7.03546,-12.0343 0.39392,-1.4267 2.03784,-4.564 3.65315,-6.9719 1.61531,-2.4078 2.92855,-4.6811 2.91833,-5.0516 -0.0102,-0.3706 -2.77264,-2.6238 -6.13868,-5.0072 -8.07664,-5.7186 -11.18892,-8.5438 -12.27798,-11.1452 -2.76334,-6.6008 1.60152,-12.8548 8.9718,-12.8548 3.56366,0 4.99322,0.7916 16.33816,9.0467 2.2323,1.6243 4.26744,2.9533 4.52252,2.9533 0.25508,0 1.421,-1.4917 2.59095,-3.3149 1.16995,-1.8232 3.16166,-4.2232 4.42603,-5.3333 1.93167,-1.696 2.85418,-2.018 5.77566,-2.016 4.32766,0 7.16478,1.6244 8.77288,5.0132 1.76115,3.7114 1.10334,7.4334 -2.21344,12.5242 -1.51212,2.3209 -2.74931,4.5174 -2.74931,4.8811 0,0.3637 4.44824,3.8574 9.88498,7.7637 8.8564,6.3632 12.12318,8.4456 12.11104,7.72 -0.002,-0.1309 -1.05219,-6.2374 -2.33333,-13.5699 -2.70009,-15.4538 -2.84108,-18.4873 -0.99962,-21.5075 4.01022,-6.5773 13.29308,-6.2125 16.55271,0.6505 0.81074,1.7069 2.34288,8.7552 3.80898,17.5223 1.34897,8.0666 2.67763,14.909 2.95256,15.2052 C 636.41728,1082.0127 656,1055.394 656,1054.322 c 0,-0.2311 -1.64583,-1.9244 -3.65741,-3.7628 -7.08755,-6.4776 -6.51786,-14.5998 1.23162,-17.5593 3.55986,-1.3595 6.85385,-0.6603 10.98394,2.3315 1.52,1.1011 3.04558,2.002 3.39018,2.002 0.34454,0 2.3646,-2.4664 4.48894,-5.4808 6.81066,-9.6644 9.3206,-11.8526 13.59553,-11.8526 4.75993,0 8.66893,3.4242 9.60493,8.4136 0.58294,3.1071 -1.08846,6.6103 -6.8762,14.4125 -2.61886,3.5303 -4.76153,6.822 -4.76153,7.3147 0,0.4928 1.83593,2.512 4.0798,4.4871 4.79747,4.2229 6.2198,7.0504 5.60593,11.1441 -0.80046,5.3376 -6.51533,8.996 -11.78166,7.5418 -1.313,-0.3625 -3.67334,-1.6314 -5.24514,-2.8198 -1.5718,-1.1884 -3.25893,-2.4565 -3.74913,-2.818 -0.63247,-0.4666 -1.25987,-0.273 -2.16053,0.6666 -1.70047,1.774 -20.00103,27.3358 -20.49825,28.6316 -0.31097,0.8103 6e-4,0.9521 1.51199,0.688 1.04701,-0.1829 8.95366,-1.3904 17.57032,-2.6832 8.61667,-1.2928 17.8194,-2.6796 20.45047,-3.0816 5.5442,-0.8472 8.70707,-0.4186 11.16187,1.5124 5.62666,4.4258 4.67453,12.9765 -1.79834,16.1502 -1.39773,0.6853 -7.278,1.9336 -13.32453,2.8286 -5.95253,0.881 -13.6728,2.0486 -17.15613,2.5947 -3.48334,0.5461 -6.55834,0.9982 -6.83334,1.0048 -1.3652,0.033 -0.10438,1.428 3.66667,4.0579 2.29167,1.5982 6.9512,4.9635 10.35447,7.4784 3.40333,2.515 6.46386,4.4758 6.80126,4.3575 0.33734,-0.1184 1.7602,-1.8598 3.1618,-3.8698 3.32654,-4.7704 6.84027,-6.857 10.73927,-6.3775 3.82247,0.4702 6.3742,2.3884 7.74947,5.8256 1.49013,3.724 0.92113,6.5238 -2.3546,11.5863 -1.44007,2.2256 -2.61834,4.3449 -2.61834,4.7097 0,0.3647 2.5774,2.5425 5.72747,4.8396 6.5744,4.794 8.69333,8.1498 7.88087,12.4806 -0.60434,3.2216 -3.79807,6.7272 -7.00347,7.6876 -3.6226,1.0854 -6.4648,0.099 -12.7106,-4.4107 -2.80813,-2.0276 -5.27193,-3.6866 -5.47513,-3.6866 -0.2032,0 -1.55607,1.7473 -3.00634,3.883 -5.31753,7.8304 -9.57106,9.9557 -15.06326,7.5262 -6.6761,-2.9532 -7.49458,-9.4597 -2.1702,-17.2523 1.6874,-2.4696 3.2246,-4.9402 3.416,-5.4902 0.24533,-0.7051 -3.5864,-3.825 -12.99077,-10.5774 -7.33632,-5.2675 -13.50133,-9.4148 -13.70001,-9.2161 -0.19869,0.1987 0.61127,6.0229 1.7999,12.9426 2.5438,14.8089 2.42206,16.5479 -1.428,20.3979 -2.55651,2.5566 -2.69913,2.6068 -6.60224,2.3244 -3.0533,-0.2208 -4.39734,-0.6698 -5.72843,-1.9133 -2.80634,-2.6218 -3.47319,-4.5731 -5.25605,-15.3801 -2.14589,-13.0074 -2.3426,-13.9114 -3.02742,-13.9114 -0.44963,0 -17.5107,23.1087 -19.58944,26.5333 -0.35344,0.5823 1.22997,2.6957 4.82564,6.4411 3.75148,3.9076 5.56068,6.3506 6.05064,8.1701 1.6447,6.108 -2.74807,12.1804 -8.8156,12.1864 -3.3769,0 -6.09602,-1.4544 -10.2473,-5.4935 -2.01333,-1.959 -3.8363,-3.2046 -4.38284,-2.9949 -0.51466,0.1975 -3.34589,3.7637 -6.29162,7.925 -7.94841,11.2282 -10.4856,14.2275 -13.0746,15.4561 -3.05396,1.4492 -4.8833,1.3994 -8.15892,-0.222 z m 610.29749,-47.9652 c -2.9735,-0.913 -5.306,-2.8154 -6.6274,-5.4055 -0.7011,-1.3743 -2.8022,-8.7535 -4.669,-16.3981 -1.8668,-7.6447 -3.6892,-14.1978 -4.0498,-14.5624 -0.379,-0.3834 -3.453,-0.5668 -7.29,-0.4351 -6.1514,0.2111 -6.849,0.1021 -9.5798,-1.4983 -5.2633,-3.0846 -6.487,-9.8128 -2.6205,-14.408 2.3594,-2.804 4.8129,-3.9379 9.6038,-4.4386 2.2421,-0.2344 4.2114,-0.7778 4.3764,-1.2078 0.4363,-1.137 -5.9742,-26.5375 -6.758,-26.7772 -0.3638,-0.1113 -4.5217,6.0942 -9.2398,13.7898 -5.3744,8.7663 -9.3583,14.5486 -10.6667,15.4819 -1.6215,1.1566 -3.0114,1.4896 -6.218,1.4896 -3.7822,0 -4.3236,-0.1881 -6.4364,-2.2359 -2.9073,-2.8178 -3.8266,-6.157 -2.791,-10.1374 0.4308,-1.6562 4.8893,-9.5674 10.1214,-17.96 11.755,-18.8555 11.2965,-18 9.6474,-18 -1.7138,0 -30.721,7.087 -31.275,7.6411 -0.2356,0.2355 0.1546,2.4377 0.867,4.8935 1.7257,5.9495 1.6793,11.5649 -0.1154,13.9728 -3.2875,4.4105 -9.3028,5.6599 -13.8172,2.8698 -2.8154,-1.74 -4.4322,-4.5834 -6.0902,-10.7106 -0.6448,-2.3833 -1.5184,-4.7116 -1.9412,-5.174 -0.614,-0.6715 -2.7084,-0.3564 -10.4042,1.5652 -6.6405,1.6581 -10.5933,2.315 -12.717,2.1134 -10.5156,-0.9982 -12.7362,-14.505 -3.1232,-18.9971 1.5793,-0.7379 6.4714,-2.1633 10.8714,-3.1675 4.4,-1.0042 8.3666,-2.1689 8.8148,-2.5882 0.6394,-0.5982 0.5088,-1.8735 -0.6064,-5.921 -1.242,-4.5083 -1.3161,-5.509 -0.588,-7.9394 2.084,-6.9556 9.6164,-9.614 15.7861,-5.5714 1.9008,1.2454 3.7042,4.6691 5.2034,9.8783 0.6118,2.1257 1.5338,4.0267 2.0489,4.2243 0.5152,0.1977 2.5276,-0.079 4.4722,-0.6138 1.9446,-0.5354 7.6636,-1.9774 12.7089,-3.2046 5.0453,-1.2272 9.0716,-2.5363 8.9473,-2.909 -0.1242,-0.3727 -6.0492,-4.1785 -13.1666,-8.4573 -7.1182,-4.2793 -13.7579,-8.7584 -14.7568,-9.9549 -5.4254,-6.4988 -0.9278,-15.94964 7.5902,-15.94964 3.8367,0 5.0999,0.6102 21.2126,10.24664 6.4167,3.8375 11.8703,6.777 12.1191,6.532 0.2488,-0.2449 -1.4198,-7.9453 -3.7081,-17.11197 l -4.1604,-16.66667 h -6.6253 c -5.8695,0 -6.8735,-0.17707 -8.802,-1.55253 -2.815,-2.00787 -4.1572,-4.67274 -4.1541,-8.24767 0.01,-5.4236 3.7103,-9.15873 10.4806,-10.5642 1.9343,-0.4016 3.5161,-1.08387 3.515,-1.5162 0,-0.43233 -0.8941,-4.38607 -1.9846,-8.78607 -2.421,-9.767 -2.518,-12.72833 -0.5135,-15.67347 2.3121,-3.39713 4.5912,-4.77166 7.9973,-4.82313 3.4365,-0.052 6.6509,1.54087 8.7249,4.32327 0.7488,1.00466 2.4857,6.21013 3.8596,11.56773 1.3739,5.35754 2.6314,9.87434 2.7944,10.03734 0.163,0.163 2.8541,-0.0735 5.9803,-0.52547 7.0274,-1.01607 10.0875,-0.285 13.0817,3.1252 1.8053,2.0562 2.0618,2.83653 2.0618,6.27393 0,6.2004 -3.0567,9.11947 -11.2338,10.7282 -2.3193,0.45627 -4.3464,1.1674 -4.5049,1.5802 -0.4358,1.13587 8.7486,37.39431 9.4565,37.33251 0.5274,-0.046 7.4371,-10.7765 15.2052,-23.61297 7.5691,-12.5076 9.3343,-15.18427 11.0801,-16.8006 7.6509,-7.08394 19.4643,0.24806 16.4336,10.1996 -0.4915,1.61386 -5.1408,9.75753 -10.3318,18.09697 -5.191,8.3394 -9.4382,15.4644 -9.4382,15.8333 0,0.3689 0.2853,0.6707 0.634,0.6707 1.4842,0 25.035,-6.069 25.5503,-6.5843 0.3114,-0.3114 0.097,-2.3757 -0.4757,-4.5871 -0.5731,-2.2116 -1.042,-4.9624 -1.042,-6.1129 0,-5.56001 4.2867,-10.04901 9.5961,-10.04901 5.9435,0 8.9306,2.74714 11.1703,10.27341 0.7737,2.5996 1.6002,4.9441 1.8367,5.2099 0.2365,0.2657 3.3559,-0.2593 6.932,-1.1667 7.9938,-2.0285 9.4125,-2.0447 13.1077,-0.1499 6.5322,3.3495 7.2566,11.767 1.4343,16.6662 -1.2701,1.0686 -4.1825,2.1967 -8.1906,3.1724 -3.4209,0.8327 -6.5623,1.782 -6.9811,2.1095 -0.5623,0.4399 -0.4347,1.8524 0.4886,5.407 0.6874,2.6463 1.2539,6.1615 1.2588,7.8115 0.023,7.5548 -7.5135,12.185 -14.464,8.8867 -3.5122,-1.6666 -4.4257,-3.4743 -7.9435,-15.72 -0.1843,-0.6417 -0.8399,-1.1623 -1.4569,-1.157 -2.2642,0.019 -32.375,7.7521 -32.5584,8.3611 -0.1042,0.3461 4.6573,3.4792 10.5811,6.9626 5.9237,3.4833 11.7525,7.3062 12.9527,8.4952 2.6538,2.629 3.8046,6.3605 2.9167,9.4566 -1.5673,5.4647 -4.8288,7.687 -10.6207,7.2364 -3.2784,-0.255 -5.031,-1.0652 -14.5768,-6.739 -5.9677,-3.5471 -11.1563,-6.4492 -11.5302,-6.4492 -0.8607,0 -0.6721,0.9232 3.9488,19.3333 l 3.7651,15 h 9.1089 c 8.1573,0 9.3022,0.1436 10.9588,1.3745 4.4935,3.3388 5.9954,8.1838 3.9034,12.5922 -1.8454,3.889 -5.102,5.6224 -12.2054,6.497 -4.449,0.5478 -6.099,1.0053 -6.099,1.691 0,0.517 1.35,6.3628 3,12.9907 3.2367,13.0016 3.5927,16.7373 1.929,20.2433 -1.7702,3.7304 -7.1364,6.1632 -10.9866,4.981 z M 386.49368,1024.4186 c -6.53468,-2.4312 -10.49648,-9.2228 -9.50126,-16.2875 0.24259,-1.7221 3.68583,-12.28107 7.65163,-23.46441 5.09515,-14.368 7.01338,-20.5766 6.53845,-21.16246 -0.36966,-0.456 -3.32623,-2.22854 -6.57016,-3.93894 -7.68861,-4.05386 -10.43809,-6.39386 -12.35849,-10.518 -2.7276,-5.85767 -1.73352,-11.5918 2.79602,-16.12813 5.36384,-5.37187 11.66032,-5.6444 21.10065,-0.91327 3.19945,1.6034 5.94213,2.78307 6.09484,2.6214 0.61557,-0.65167 13.89102,-38.71313 13.60315,-39.001 -0.29486,-0.29487 -4.15573,1.28753 -11.51518,4.71953 -27.67848,12.90754 -31.41608,14.4674 -35.49848,14.81507 -5.31195,0.45247 -9.23605,-0.96753 -12.42326,-4.4954 -5.79476,-6.41407 -4.31021,-16.8648 3.10405,-21.85133 3.82097,-2.56987 26.08673,-12.58874 29.81769,-13.417 4.56021,-1.01234 172.01845,-1.45814 172.40187,-0.45894 0.16191,0.42194 -0.31562,2.54007 -1.06116,4.70707 -0.74555,2.16693 -1.11023,4.1852 -0.81041,4.485 0.29982,0.29987 4.36933,1.89387 9.04335,3.54227 10.68225,3.76733 11.7575,4.33413 14.6644,7.7302 6.51614,7.6126 3.44269,19.3962 -5.99955,23.00226 -4.22426,1.61327 -9.10752,0.90514 -18.83154,-2.7306 -4.54284,-1.6986 -8.48047,-2.8452 -8.75029,-2.548 -0.26982,0.29714 -1.6082,3.9316 -2.97417,8.07654 -1.48856,4.51693 -3.32472,8.6366 -4.58304,10.2826 -2.84446,3.72073 -7.02528,5.8478 -11.49424,5.8478 -4.34823,0 -6.11078,-0.64727 -9.2371,-3.3922 -5.75557,-5.05347 -6.45698,-10.8998 -2.70145,-22.51687 2.09206,-6.47133 2.75483,-9.42427 2.11525,-9.42427 -0.11994,0 -10.66745,-3.75913 -23.43889,-8.35373 -12.77145,-4.59453 -23.4786,-8.26773 -23.79368,-8.16273 -0.31507,0.10506 1.48433,4.3892 3.99867,9.5204 12.88996,26.30533 14.11408,29.62953 12.82559,34.8294 -1.18457,4.78046 -3.46411,7.76026 -7.45974,9.7514 -4.30907,2.14726 -8.18937,2.25266 -12.27269,0.33326 -5.45707,-2.56513 -6.75446,-4.6374 -19.04351,-30.418 -2.49065,-5.225 -4.7988,-9.5 -5.12923,-9.5 -0.66108,0 -17.49656,46.98681 -17.47922,48.78347 0.007,0.74587 2.68526,2.517 8.06454,5.33334 4.42956,2.31906 9.20318,5.19233 10.60805,6.385 3.40272,2.88866 5.33819,7.0208 5.33819,11.39673 0,8.71967 -5.6766,14.2762 -14.53246,14.22507 -3.92178,-0.0227 -4.9834,-0.37767 -12.22548,-4.0886 l -7.93075,-4.06387 -0.72203,1.84773 c -0.39712,1.01634 -3.36024,9.23287 -6.58473,18.25914 -6.0714,16.99547 -6.62044,18.31417 -8.94627,21.48717 -3.2587,4.4456 -10.80329,6.7489 -15.89793,4.8534 z m 452.44039,-7.6516 c -3.9542,-1.8497 -5.83514,-4.8358 -6.13434,-9.7386 -0.2324,-3.809 -0.0427,-4.4152 3.47727,-11.13251 2.04767,-3.90726 3.723,-7.3722 3.723,-7.69986 0,-0.3276 -2.325,-1.73027 -5.16667,-3.117 -8.57993,-4.187 -11.4932,-7.60274 -11.49753,-13.4804 -0.007,-6.3556 4.7304,-10.93194 11.3112,-10.93194 3.13167,0 4.8552,0.5218 10.0088,3.03014 3.42413,1.66653 6.58333,2.8928 7.02053,2.72506 0.43714,-0.16773 1.46894,-1.60626 2.29287,-3.19673 0.824,-1.59053 4.74587,-8.8918 8.71533,-16.22513 7.31454,-13.51307 8.17874,-15.40047 6.98214,-15.24894 -0.36667,0.0467 -6.06667,1.76173 -12.66667,3.8118 -15.75993,4.8952 -18.50533,5.46307 -21.73447,4.4956 -7.4344,-2.2274 -10.74793,-9.89207 -7.07773,-16.37207 2.54287,-4.48966 3.88007,-5.1346 22.14553,-10.68033 4.4,-1.33593 8.97774,-2.733 10.1728,-3.1046 1.19507,-0.37153 2.01514,-0.93073 1.8224,-1.2426 -0.19273,-0.31187 -3.57053,-2.2822 -7.50613,-4.37853 -3.93567,-2.09634 -8.35573,-4.467 -9.8224,-5.26814 -9.11807,-4.9808 -18.21187,-9.67826 -18.7292,-9.67473 -0.33227,0 -2.32733,2.3416 -4.4334,5.1986 -4.80307,6.5154 -7.46253,9.10093 -10.78827,10.4882 -6.9368,2.89353 -14.9462,-2.5518 -15.0212,-10.21233 -0.0367,-3.73374 1.24654,-6.67014 5.30894,-12.15007 1.8314,-2.4704 3.3298,-4.65127 3.3298,-4.84647 0,-0.19513 -1.65,-1.286 -3.66667,-2.42413 -2.01667,-1.13813 -3.66667,-2.3776 -3.66667,-2.75433 0,-0.45967 7.84014,-0.62227 23.83334,-0.49427 L 845,872.33336 l 12,6.47073 c 6.6,3.55887 12.10973,6.1546 12.24393,5.7682 0.13414,-0.38633 -0.4406,-3.24973 -1.27726,-6.363 -1.1904,-4.42947 -1.3388,-5.77327 -0.68247,-6.17893 0.46133,-0.28507 5.82307,-0.48354 11.91493,-0.441 l 11.0762,0.0773 0.8164,2.33333 c 0.449,1.28334 1.44567,4.50834 2.21487,7.16667 0.76913,2.65833 1.6148,4.8308 1.87927,4.82773 0.26446,0 1.5308,-1.9994 2.81413,-4.4362 1.28333,-2.4368 3.15173,-5.73426 4.152,-7.32766 l 1.81867,-2.8972 H 916.652 c 8.9534,0 12.68133,0.2206 12.68133,0.7504 0,0.41273 -2.13033,4.78246 -4.73406,9.71046 -2.60367,4.92794 -4.59607,9.09794 -4.42747,9.26654 0.1686,0.1686 7.01653,-1.80334 15.2176,-4.382 20.0526,-6.3052 21.72267,-6.6286 25.69147,-4.97547 1.77393,0.73893 3.9936,2.38667 5.16,3.83047 1.74553,2.16066 2.0502,3.09986 2.06966,6.3796 0.018,3.0858 -0.33306,4.38406 -1.77766,6.569 -2.38107,3.60113 -5.19474,4.82693 -25.0236,10.90133 -8.8866,2.72233 -16.06227,5.2478 -15.94587,5.6122 0.2642,0.8272 33.73427,18.90653 35.10327,18.9616 0.55,0.022 1.87573,-1.38433 2.94613,-3.12533 4.17933,-6.79794 7.81307,-9.1554 13.398,-8.69227 4.2952,0.3562 7.37933,2.44387 9.05227,6.12753 2.04213,4.49674 1.49313,8.5548 -1.8888,13.96127 -0.88147,1.40913 -1.46227,2.92793 -1.29067,3.37514 0.1716,0.4472 4.38187,2.99193 9.35607,5.655 5.3628,2.87113 9.85673,5.7676 11.04083,7.11613 4.6339,5.2778 3.8881,12.47373 -1.7376,16.76467 -2.10137,1.6028 -3.04637,1.85946 -6.82437,1.85366 -4.23306,-0.007 -4.7422,-0.20106 -14.67573,-5.60866 l -10.29053,-5.60194 -1.0428,1.60114 c -4.83547,7.4244 -6.67727,9.7944 -8.61734,11.0886 -8.71173,5.8118 -19.487,-1.76314 -17.26766,-12.13907 0.31373,-1.46667 1.74013,-4.59687 3.1698,-6.956 1.42973,-2.35913 2.4728,-4.49433 2.31793,-4.74487 -0.25167,-0.4072 -29.71227,-16.33513 -36.8122,-19.9026 -1.55833,-0.783 -2.83333,-1.1606 -2.83333,-0.8392 0,0.32147 1.47846,5.65253 3.28546,11.84687 12.5684,43.08433 12.3888,42.27087 10.30154,46.66947 -2.3196,4.8882 -8.24287,7.7398 -13.07174,6.29306 -2.99673,-0.89786 -7.02613,-4.2504 -8.00313,-6.6588 -0.38107,-0.9394 -3.2904,-10.65073 -6.4652,-21.58086 -3.1748,-10.93007 -6.05707,-19.89794 -6.405,-19.92854 -0.73007,-0.064 -2.50993,2.87867 -7.94393,13.1348 -2.137,4.03334 -4.624,8.61207 -5.5266,10.17487 -0.9026,1.56287 -1.49547,3.21287 -1.31747,3.66667 0.178,0.45386 2.07473,1.72513 4.215,2.82513 5.3406,2.74487 7.9766,5.2018 9.30073,8.669 2.8588,7.4856 -2.59,14.99767 -10.8784,14.99767 -2.40306,0 -4.63826,-0.6818 -8.7428,-2.6666 -3.03286,-1.46674 -5.61206,-2.66674 -5.73146,-2.66674 -0.11947,0 -2.11034,3.48764 -4.42427,7.75024 -3.213,5.919 -4.8078,8.1477 -6.7496,9.4327 -3.39313,2.2455 -7.96267,2.6076 -11.57573,0.9174 z M 285,855.54402 c -14.90189,-0.76773 -32.59247,-4.05253 -46.06379,-8.55326 C 223.42423,841.80822 199.68099,828.92122 187,818.80162 c -23.76997,-18.9688 -42.04867,-43.1184 -51.86593,-68.5246 -8.13904,-21.06313 -11.14695,-36.756 -11.17696,-58.3124 -0.0346,-24.85694 4.33619,-44.52481 14.79328,-66.56734 19.04063,-40.13584 53.93759,-69.86917 97.81454,-83.34113 26.33736,-8.08662 56.10369,-9.44137 83.83648,-3.81564 2.23745,0.45387 4.40131,0.71415 4.80858,0.5784 0.40726,-0.13576 2.15805,-2.25054 3.89064,-4.69953 28.16513,-39.81103 70.67541,-69.11563 119.56604,-82.42327 39.63132,-10.78732 81.38055,-10.97 122.19002,-0.53465 8.32702,2.12929 7.98365,2.29722 9.12095,-4.46077 1.41278,-8.39498 6.78395,-28.90489 10.62921,-40.58779 7.53898,-22.9054 19.26375,-49.78091 28.55172,-65.44622 31.84935,-53.71788 77.0349,-98.43221 129.5081,-128.15744 43.00926,-24.36409 86.16413,-38.2462 137.66666,-44.28478 12.67227,-1.4858 56.00134,-1.71004 69,-0.3571 27.01867,2.8122 52.28017,8.07038 75.97357,15.81394 8.1829,2.67438 12.9636,4.43108 28.0264,10.2985 6.048,2.35585 31.0754,14.88735 40,20.02845 56.1552,32.34846 103.571,81.7221 133.8841,139.41235 31.1902,59.35941 44.1719,124.03226 38.5345,191.97316 -0.5296,6.38344 -0.5622,9.49611 -0.1006,9.63266 0.3752,0.11096 3.382,0.3854 6.682,0.60987 39.9634,2.71836 80.0668,23.06359 105.8446,53.69706 14.7517,17.53027 25.9956,39.52819 31.1795,61 2.6329,10.9058 3.3327,16.52467 3.7364,30 0.483,16.1234 -0.6079,27.12367 -4.0627,40.96834 -10.6067,42.50346 -36.5724,76.018 -74.6278,96.32407 -17.2953,9.22866 -31.3164,13.79026 -52.7366,17.15713 -4.2457,0.66733 -106.6216,0.85147 -502.00003,0.9028 C 512.5,855.72102 287.2,855.65769 285,855.54402 Z M 90.958967,731.39669 C 73.33154,721.80955 55.200563,706.74749 42.170811,690.86648 32.689819,679.31082 21.855109,660.13905 16.400103,645.26586 6.7277,618.89386 4.8001059,588.10016 11.069045,560.10116 15.959191,538.26027 27.231407,515.38877 41.675591,498.00001 67.426993,466.99895 103.81993,447.3262 144.66667,442.32664 c 7.60891,-0.93132 31.20408,-1.43612 33.42192,-0.71504 0.50128,0.16297 3.05634,0.4776 5.67792,0.69917 2.62159,0.22156 7.80722,0.99228 11.52364,1.71271 3.71642,0.72043 7.0134,1.30987 7.32661,1.30987 0.31321,0 2.94123,-3.225 5.84003,-7.16667 10.49883,-14.27586 20.38329,-24.80827 33.62891,-35.83334 33.46994,-27.8589 75.5913,-44.96814 120.58097,-48.97868 9.85472,-0.87848 30.82828,-0.87754 40.66666,0.002 10.4381,0.93297 26.6763,3.67054 35.75598,6.02804 9.85312,2.55832 10.08174,2.54644 10.60975,-0.55118 2.31021,-13.55292 8.04147,-35.01607 13.29161,-49.77613 25.06963,-70.4797 71.10359,-129.11324 133.38777,-169.89624 79.84963,-52.284668 177.28356,-68.552535 270.37023,-45.141841 24.66713,6.203631 60.93906,20.080111 73.4164,28.086781 5.17766,3.32249 6.76386,8.35909 3.62206,11.50087 -1.5202,1.5202 -1.84786,1.55242 -19.5,1.91742 -21.908,0.45298 -37.284,2.08762 -58.62046,6.23201 -61.70487,11.98553 -123.63027,39.74047 -175.3008,78.5697 -20.76594,15.60516 -45.97668,39.05119 -61.65657,57.34076 -35.1608,41.01278 -58.09958,86.42745 -65.74671,130.16667 -1.29405,7.40158 -1.48814,7.62056 -5.41919,6.11416 -2.71441,-1.04018 -18.81281,-4.35124 -26.21007,-5.39079 -8.53319,-1.19919 -44.01282,-1.20149 -52.66666,-0.003 -43.57579,6.0328 -80.17146,19.31327 -113.33334,41.12835 -25.05296,16.48073 -44.53665,35.84007 -57.68656,57.31836 -1.7959,2.93334 -3.52276,5.51442 -3.83745,5.73574 -0.31469,0.22132 -6.77553,0.58148 -14.35741,0.80037 -15.50378,0.44759 -21.54244,1.05069 -35.45191,3.54076 -35.17894,6.29772 -65.77731,19.49021 -92.80645,40.01349 -9.4942,7.20897 -25.66425,23.52889 -32.60742,32.90965 -7.9689,10.76658 -11.36402,16.2867 -16.60624,27 -15.57045,31.82072 -20.11203,67.27206 -13.19505,103 1.67823,8.66847 1.69085,9.70273 0.139287,11.4172 -2.376534,2.626 -3.10252,2.62413 -7.96516,-0.0207 z"
       id="path2979" />
    <path
       style="fill:#aaccff;stroke-width:1.22752"
       d="M 267.43996,853.08749 C 241.33608,849.00557 218.79395,839.749 193.33497,822.65745 182.98656,815.71018 159.9765,792.32121 152.43315,781.08209 139.74921,762.1838 130.10941,738.6673 126.3647,717.48755 c -1.86544,-10.55077 -1.8423,-38.63715 0.042,-50.94223 7.20244,-47.03486 39.59559,-90.66202 83.88251,-112.97311 24.20471,-12.19397 47.79763,-17.77511 74.96397,-17.73347 14.55426,0.0223 19.6443,0.45102 35.74427,3.01058 4.89765,0.77862 4.92399,0.76099 10.39383,-6.95807 9.96037,-14.05614 35.94653,-38.83147 51.59612,-49.19198 33.82801,-22.39518 68.79507,-34.40131 110.32572,-37.88094 20.89999,-1.75108 44.40574,-0.16163 66.2822,4.48202 17.8723,3.79371 19.58762,3.81736 20.32432,0.28017 2.84937,-13.68094 9.08708,-36.75737 13.01473,-48.14795 18.49195,-53.62871 42.16912,-91.06841 83.90861,-132.68117 53.23788,-53.07622 115.27802,-84.5887 192.24377,-97.64768 14.56231,-2.47083 20.88776,-2.81909 52.16975,-2.87236 36.26161,-0.0618 42.77456,0.46255 69.35508,5.58327 111.53192,21.48652 206.86282,97.87372 253.00542,202.72944 21.233,48.25057 31.3639,105.10128 28.1498,157.96672 -0.6747,11.09812 -1.0724,20.33274 -0.8838,20.52136 0.1886,0.18864 5.5451,0.93228 11.9033,1.65254 66.4034,7.52228 118.9287,54.55856 133.3383,119.40426 1.3779,6.20071 1.9772,15.14781 1.9918,29.73713 0.02,19.33121 -0.2522,21.90741 -3.6915,34.98442 -14.7833,56.21129 -53.6071,95.05624 -110.1811,110.24135 l -12.2752,3.29482 -506.96722,0.19873 c -420.21,0.16472 -508.78023,-0.0848 -517.56139,-1.45791 z"
       id="path3059" />
    <path
       style="fill:#939dac;stroke-width:1.22752"
       d="M 84.699129,727.1251 C 53.524214,707.78863 28.73921,677.51517 16.744938,644.12297 5.2218418,612.04252 5.7185291,571.25404 18.011514,540.11039 c 7.891913,-19.99376 16.970287,-34.22218 31.619427,-49.55675 22.684722,-23.74614 50.250646,-38.91434 82.761369,-45.5396 16.04372,-3.2695 46.23888,-3.72371 60.94266,-0.91673 5.4011,1.03108 9.8714,1.78899 9.93399,1.68424 0.0626,-0.10484 4.26843,-5.45108 9.34633,-11.88071 49.55152,-62.74217 131.58823,-92.14912 213.25612,-76.44398 25.67546,4.93752 23.19183,5.87232 26.74855,-10.06768 8.65678,-38.79674 26.38116,-79.98935 48.85664,-113.54593 25.40161,-37.92541 63.47758,-74.62385 102.46502,-98.75804 95.90811,-59.369468 216.22207,-67.099632 319.7699,-20.54519 18.07599,8.12685 22.97308,12.33839 20.25414,17.41877 -1.05198,1.96562 -2.59003,2.46143 -7.71521,2.48708 -94.32751,0.47203 -192.68036,38.28021 -267.39387,102.78986 -54.92863,47.42685 -91.60221,104.30171 -104.63795,162.27676 -1.70996,7.60489 -3.27666,13.9825 -3.48156,14.17248 -0.2049,0.18998 -6.17259,-1.05646 -13.26154,-2.76987 -11.77292,-2.84555 -15.33373,-3.12548 -41.12204,-3.23289 -24.37362,-0.10152 -30.16276,0.25326 -42.34957,2.59524 -67.56598,12.9844 -123.20205,46.37675 -154.46761,92.71032 l -6.08672,9.02011 -20.68664,1.44627 c -44.49339,3.11068 -79.06282,14.32319 -112.13717,36.3714 -14.9834,9.98831 -35.47175,29.74719 -45.29479,43.68212 -24.829,35.22229 -34.755612,79.05835 -27.747028,122.53126 1.123257,6.96733 1.73914,13.45786 1.368631,14.4234 -1.135498,2.95905 -5.901423,1.84319 -14.253464,-3.33723 z"
       id="path3199" />
    <path
       style="fill:#afc6e9;stroke-width:1.22752"
       d="m 266.98639,852.34066 c -19.28851,-2.45008 -41.50752,-10.71937 -62.91786,-23.41625 -22.0043,-13.0491 -47.3373,-39.25948 -59.07787,-61.12392 -16.52234,-30.76954 -22.49663,-61.09673 -18.74907,-95.17564 5.93198,-53.94324 45.51575,-104.50613 97.54606,-124.60186 30.57429,-11.80874 56.41309,-14.21255 96.6337,-8.98993 l 5.56154,0.72217 7.03454,-9.18421 c 7.8782,-10.28569 30.76064,-32.92616 41.99103,-41.547 23.18807,-17.79996 56.6047,-32.8841 86.54042,-39.064 17.86846,-3.68873 30.82728,-4.98271 49.90056,-4.98271 18.6385,0 29.20396,1.08093 49.23719,5.03738 19.53815,3.85867 18.35577,4.59082 23.00264,-14.24381 13.38516,-54.25244 33.06391,-95.60274 63.96805,-134.41383 10.70016,-13.43785 44.7158,-47.45555 58.16876,-58.17228 44.81742,-35.70192 95.55976,-58.59582 155.89549,-70.33681 15.01347,-2.92154 20.01123,-3.27564 53.15476,-3.76618 40.39695,-0.59789 51.43498,0.2302 78.916,5.92038 45.18087,9.3551 84.88727,26.01593 123.25417,51.71748 22.4034,15.00784 38.1837,28.25482 57.6936,48.4317 45.2347,46.78127 74.7715,101.62756 88.8133,164.91587 6.4198,28.93442 7.5491,40.86401 7.524,79.47973 l -0.023,35.90263 3.7059,0.55813 c 21.575,3.24931 29.913,5.01519 40.6594,8.61118 24.7598,8.28515 40.6705,18.36674 60.0209,38.03146 19.3199,19.63362 29.8065,37.50425 38.2145,65.1225 3.2147,10.55957 3.3643,12.21385 3.3871,37.43947 0.025,26.39118 0.023,26.39204 -3.9892,39.28076 -16.9413,54.40954 -51.2043,88.58301 -105.2358,104.96071 l -14.1495,4.28889 -509.04413,-0.15528 c -288.74372,-0.0881 -512.76279,-0.62763 -517.63678,-1.24673 z"
       id="path3201" />
  </g>
</svg>
