<?xml version="1.0" encoding="UTF-8" standalone="no"?>
<!-- Created with Inkscape (http://www.inkscape.org/) -->

<svg
   version="1.1"
   id="svg285"
   width="1572"
   height="1636"
   viewBox="0 0 1572 1636"
   sodipodi:docname="sunny.svg"
   inkscape:version="1.2.2 (b0a84865, 2022-12-01)"
   xmlns:inkscape="http://www.inkscape.org/namespaces/inkscape"
   xmlns:sodipodi="http://sodipodi.sourceforge.net/DTD/sodipodi-0.dtd"
   xmlns="http://www.w3.org/2000/svg"
   xmlns:svg="http://www.w3.org/2000/svg">
  <defs
     id="defs289" />
  <sodipodi:namedview
     id="namedview287"
     pagecolor="#ffffff"
     bordercolor="#000000"
     borderopacity="0.25"
     inkscape:showpageshadow="2"
     inkscape:pageopacity="0.0"
     inkscape:pagecheckerboard="0"
     inkscape:deskcolor="#d1d1d1"
     showgrid="false"
     inkscape:zoom="0.62775061"
     inkscape:cx="785.34372"
     inkscape:cy="817.20351"
     inkscape:window-width="3440"
     inkscape:window-height="1412"
     inkscape:window-x="1440"
     inkscape:window-y="28"
     inkscape:window-maximized="0"
     inkscape:current-layer="g291" />
  <g
     inkscape:groupmode="layer"
     inkscape:label="Image"
     id="g291">
    <g
       id="g295"
       transform="translate(20.708857,-11.150926)"
       style="fill:#ffff00">
      <path
         style="fill:#ffff00;fill-opacity:1;stroke-width:1.33333"
         d="m 786.77631,1430.5549 c -11.87279,-3.8697 -22.21724,-14.2425 -26.4824,-26.5549 -3.79015,-10.9412 -3.8977,-12.8004 -7.46663,-129.0767 -2.29337,-74.7187 -3.29408,-95.3091 -4.67353,-96.1616 -0.96543,-0.5967 -6.34496,-1.5 -11.95454,-2.0075 -9.84226,-0.8904 -30.57745,-3.9388 -37.61364,-5.5299 -2.1438,-0.4848 -4.00216,-0.064 -4.9938,1.131 -1.43022,1.7233 -6.22954,14.9643 -23.55189,64.978 -3.17489,9.1667 -6.44551,18.1667 -7.26804,20 l -1.49552,3.3334 0.5592,-3.3334 c 0.30755,-1.8333 4.77235,-15.3333 9.92176,-30 5.14943,-14.6666 11.57355,-32.9666 14.27584,-40.6666 2.70228,-7.7 5.67967,-14.808 6.6164,-15.7954 1.38991,-1.4652 3.38736,-1.5101 10.86015,-0.2442 5.03634,0.8532 17.46525,2.62 27.61977,3.9262 10.15453,1.3062 18.87473,3.0414 19.37824,3.8561 0.50349,0.8147 1.99611,36.7558 3.31693,79.8693 4.04891,132.1625 4.1766,134.6592 7.34592,143.6244 3.37179,9.538 10.74919,18.5874 19.60935,24.0537 6.12423,3.7784 7.38308,4.0385 19.22012,3.9709 9.88937,-0.056 13.73608,-0.641 17.54407,-2.6666 12.79373,-6.8054 21.65328,-19.8487 23.76072,-34.9814 0.58313,-4.1872 0.56181,-21.713 -0.0473,-38.9464 -3.32321,-94.0122 -5.54828,-175.9855 -4.82786,-177.8629 0.45104,-1.1754 1.444,-2.1371 2.20656,-2.1371 0.91744,0 0.87876,0.813 -0.1144,2.4033 -1.1214,1.7956 -0.64484,28.8478 1.8849,107 1.86216,57.5282 3.0998,106.3967 2.75032,108.5967 -1.39477,8.78 -3.77517,16.2384 -6.66192,20.8734 -10.66904,17.13 -30.73564,24.5354 -49.71874,18.3482 z m -477.87987,-73.7158 c -18.56833,-5.2294 -31.65641,-24.2562 -29.86048,-43.4099 1.13515,-12.1064 5.54439,-22.0601 13.99177,-31.5858 1.26808,-1.43 6.20051,-7.0797 10.96094,-12.555 4.76044,-5.4753 9.26044,-10.6131 10,-11.4173 0.73957,-0.8042 4.64466,-5.2462 8.678,-9.8711 4.03333,-4.6249 7.93333,-9.0677 8.66666,-9.873 0.73334,-0.8053 5.23267,-5.9633 9.99854,-11.4622 4.76585,-5.499 8.96585,-10.2981 9.33333,-10.6648 0.36747,-0.3667 4.55665,-5.1667 9.30928,-10.6667 4.75263,-5.5 8.95329,-10.3 9.3348,-10.6666 0.38151,-0.3667 4.59233,-5.1667 9.35739,-10.6667 4.76505,-5.5 8.97588,-10.3 9.35738,-10.6667 0.38151,-0.3666 4.58218,-5.1666 9.3348,-10.6666 4.75263,-5.5 8.94182,-10.3 9.30928,-10.6667 0.36748,-0.3667 4.56682,-5.1667 9.33187,-10.6667 4.76505,-5.5 8.96505,-10.3 9.33333,-10.6666 0.36828,-0.3667 4.56828,-5.1667 9.33334,-10.6667 4.76505,-5.5 8.97588,-10.3 9.35738,-10.6667 0.38151,-0.3666 4.58218,-5.1521 9.3348,-10.6344 4.75263,-5.4822 9.24115,-10.6402 9.97448,-11.4622 0.73334,-0.822 4.63334,-5.275 8.66667,-9.8957 4.03333,-4.6207 9.26941,-10.5628 11.63573,-13.2045 2.36632,-2.6417 4.31426,-5.7032 4.32874,-6.8032 0.0145,-1.1 -3.62863,-6.2 -8.09583,-11.3333 -4.46719,-5.1333 -10.91512,-13.0833 -14.32873,-17.6667 -6.6286,-8.8999 -10.29974,-10.3985 -15.6184,-6.3757 -1.4235,1.0767 -3.18818,1.9579 -3.92151,1.9584 -0.73333,4e-4 1.06667,-1.4774 4,-3.2841 2.93333,-1.8067 6.05385,-3.288 6.93448,-3.2917 0.88063,0 6.55677,6.1431 12.61367,13.6598 6.0569,7.5167 13.27992,16.0667 16.05116,19 2.77124,2.9333 5.03925,5.9333 5.04004,6.6667 0.003,2.1551 -9.2046,13.1753 -29.97268,35.8759 -2.71104,2.9633 -25.53023,29.2742 -31.33334,36.1279 -5.654,6.6775 -26.74616,30.7051 -43.8883,49.9962 -4.23568,4.7666 -9.74359,11.066 -12.2398,13.9986 -2.4962,2.9325 -6.70162,7.7325 -9.34534,10.6666 -2.64373,2.9341 -9.76232,11.0348 -15.81909,18.0014 -6.05676,6.9667 -12.59372,14.4667 -14.52655,16.6667 -21.0939,24.0096 -32.97922,37.4491 -33.60542,38 -4.11986,3.6242 -14.80504,19.9588 -16.72027,25.5606 -6.98351,20.4256 1.33412,41.5297 20.11244,51.0306 6.40637,3.2413 9.14743,3.8316 17.54163,3.7776 13.73713,-0.088 23.55794,-4.9761 36.27706,-18.0541 5.16075,-5.3064 10.60007,-11.148 12.08739,-12.9814 1.48731,-1.8333 2.70812,-2.7333 2.71292,-2 0.009,1.3697 -6.10537,8.4869 -16.92592,19.7023 -12.02685,12.4656 -30.84239,18.0997 -46.09764,13.8035 z m 64.47929,-35.1279 c 0.0575,-1.4165 1.86972,-3.7082 11.97299,-15.1409 16.04017,-18.1507 34.44059,-39.1937 57.54109,-65.8048 1.95606,-2.2534 3.84734,-3.7974 4.20283,-3.4312 0.53993,0.5561 -10.65764,13.7115 -32.921,38.677 -3.60927,4.0473 -9.34572,10.6184 -24.99793,28.6348 -12.48776,14.374 -15.83554,17.9903 -15.79798,17.0651 z m 225.9576,-15.9254 C 582.02873,1298.6094 572,1283.6978 572,1265.1442 c 0,-7.4824 3.55416,-26.2742 5.25997,-27.8109 0.40702,-0.3666 2.14776,-4.8666 3.86832,-10 1.72056,-5.1333 8.79607,-25.4793 15.72336,-45.2132 6.92728,-19.734 12.41955,-36.7244 12.20504,-37.7566 -0.21452,-1.032 -6.39002,-5.0022 -13.72336,-8.8225 -7.33333,-3.8203 -18.51665,-10.0799 -24.85184,-13.9102 -6.33517,-3.8303 -12.22802,-6.9641 -13.09524,-6.9641 -1.94122,0 -0.75984,-1.2436 -24.06624,25.3333 -17.50964,19.9667 -24.88042,28.3325 -28.65334,32.5212 -0.73334,0.8142 -3.35902,3.88 -5.83486,6.8129 -2.47582,2.9329 -7.94158,9.2326 -12.14613,13.9992 -4.20455,4.7667 -14.06419,16.0031 -21.91033,24.9699 -7.84615,8.9667 -14.98039,16.7199 -15.85387,17.2292 -1.72387,1.0051 0.74512,-2.1535 9.06688,-11.5994 2.93973,-3.3369 6.79403,-7.8369 8.56511,-10 4.9505,-6.0465 18.87012,-22.0554 23.70772,-27.2663 2.3828,-2.5667 17.71758,-19.9667 34.0773,-38.6667 19.01778,-21.7383 30.78758,-34.1505 32.63606,-34.4173 1.59121,-0.2296 6.06869,1.6014 9.95829,4.0724 7.28204,4.6261 26.23733,15.1369 37.40049,20.7386 4.65326,2.3351 6.32442,3.9424 6.29971,6.0589 -0.0359,3.0772 -3.92176,15.0286 -13.94215,42.8807 -19.67368,54.6839 -23.30317,66.6873 -23.33673,77.1787 -0.0633,19.7916 13.33973,37.0902 31.68915,40.8995 14.37717,2.9847 26.75724,-1.0318 38.05454,-12.346 6.48736,-6.4971 10.71586,-14.2779 16.08054,-29.5897 0.48641,-1.3883 1.24869,-2.1598 1.69397,-1.7146 0.94675,0.9468 -3.96096,13.6106 -8.61835,22.2388 -8.04149,14.8975 -20.97089,23.0268 -37.58734,23.6329 -6.98696,0.2548 -11.60695,-0.3017 -15.33334,-1.8471 z m 403.99997,-64.5067 c -16.73822,-2.544 -27.27738,-12.0756 -41.21997,-37.2791 -5.071,-9.1667 -11.1388,-19.9667 -13.484,-24 -2.34518,-4.0333 -6.50902,-11.5333 -9.25297,-16.6667 -6.86448,-12.842 -8.59095,-14.486 -13.32269,-12.687 -2.06626,0.7856 -4.05684,1.1283 -4.42351,0.7616 -0.77604,-0.776 5.68479,-3.4079 8.36585,-3.4079 2.40807,0 5.12516,4.0747 16.0038,24 12.03042,22.0349 13.82823,25.2727 16.65779,30 1.31684,2.2 3.64547,6.3685 5.17475,9.2634 1.52928,2.8949 5.55433,8.4763 8.94456,12.4032 10.75866,12.4617 21.2474,17.1206 36.13779,16.0518 10.3213,-0.7409 17.4398,-3.8795 24.4186,-10.7663 9.3513,-9.228 11.0753,-13.1156 11.7394,-26.4716 0.6584,-13.2433 -1.343,-21.0654 -8.5848,-33.5519 -2.4684,-4.256 -4.4879,-7.9434 -4.4879,-8.1942 0,-0.2509 -4.8,-8.9813 -10.6667,-19.4011 -5.8666,-10.4197 -10.6666,-19.2142 -10.6666,-19.5432 0,-0.329 -1.5,-2.8057 -3.3334,-5.5037 -4.6698,-6.8723 -4.3713,-11.3838 1,-15.1146 6.526,-4.5326 30.6425,-24.4247 33.54,-27.6648 1.397,-1.5622 3.8431,-2.8403 5.4357,-2.8403 2.4416,0 28.3586,20.18 57.6043,44.8531 3.069,2.5891 9.069,7.4158 13.3333,10.726 4.2644,3.3101 8.0534,6.4104 8.4201,6.8893 0.3666,0.479 5.1666,4.4682 10.6666,8.8649 5.5,4.3967 10.3,8.3301 10.6667,8.7409 0.3667,0.4109 8.1667,6.788 17.3333,14.1714 9.1667,7.3835 23.5667,19.2242 32,26.3128 20.9378,17.5992 31.2423,24.2944 41.3938,26.8951 18.5228,4.7453 36.2611,-2.6205 46.1787,-19.1756 3.382,-5.6455 3.7609,-7.4868 3.7609,-18.2779 0,-19.7564 -5.809,-28.7918 -32.1589,-50.0204 -1.3793,-1.1112 -7.0078,-5.6088 -12.5078,-9.9946 -5.5,-4.3858 -10.3038,-8.3754 -10.6751,-8.8659 -0.3713,-0.4905 -6.1144,-5.293 -12.7623,-10.6722 -6.6479,-5.3791 -18.2943,-14.8803 -25.8808,-21.1136 -7.5866,-6.2333 -19.5435,-16.0164 -26.5711,-21.7401 -7.0275,-5.7238 -13.9839,-11.4238 -15.4586,-12.6667 -1.4746,-1.2429 -7.6509,-6.3836 -13.7251,-11.4237 -6.0741,-5.04 -10.6849,-9.5227 -10.2463,-9.9613 0.4387,-0.4387 1.215,-0.1909 1.7251,0.5508 0.5102,0.7416 9.3275,8.215 19.5942,16.6076 10.2667,8.3925 18.9667,15.5839 19.3333,15.9807 0.3667,0.3969 3.3667,2.7975 6.6667,5.3346 3.3,2.5372 6.6513,5.2217 7.4473,5.9656 0.796,0.7439 4.0745,3.4525 7.2855,6.0192 3.2111,2.5666 7.9598,6.5013 10.5528,8.7438 2.5929,2.2424 11.0132,9.1424 18.7117,15.3333 7.6986,6.1909 17.6113,14.2562 22.0283,17.9229 4.417,3.6666 10.9926,9.0666 14.6123,12 19.4827,15.788 24.8444,21.535 30.312,32.4903 13.2651,26.5788 -4.3666,57.4443 -34.1818,59.8376 -14.956,1.2005 -28.6853,-5.0192 -48.9452,-22.1733 -13.0094,-11.0151 -20.3312,-17.0809 -33.0733,-27.4001 -20.4862,-16.5907 -24.7398,-20.077 -25.4163,-20.8314 -0.3666,-0.4089 -11.1666,-9.311 -24,-19.7824 -27.4099,-22.3652 -34.6264,-28.3189 -36.5695,-30.1703 -0.7868,-0.7496 -3.017,-2.5496 -4.9562,-4 -1.9391,-1.4504 -9.568,-7.5871 -16.9531,-13.6371 -7.3851,-6.05 -14.1985,-10.9917 -15.1409,-10.9815 -0.9425,0.011 -6.5136,4.2664 -12.3803,9.4582 -5.8666,5.1918 -15.0166,12.7171 -20.3333,16.7229 -9.8359,7.4109 -11.1068,9.7489 -7.8841,14.5037 0.9804,1.4465 4.2213,7.13 7.2019,12.63 2.9807,5.5 10.579,19.3 16.8851,30.6667 13.9415,25.1291 16.0708,30.9502 16.0947,44 0.015,8.0098 -0.6728,11.4771 -3.4539,17.4221 -8.1235,17.3646 -25.5992,26.7314 -44.5104,23.857 z M 843.33333,1172 c 1.46667,-0.6303 4.18172,-1.1881 6.03346,-1.2396 7.19848,-0.2004 45.79012,-10.5462 63.66293,-17.0671 3.13303,-1.143 6.02081,-1.7539 6.41733,-1.3574 0.67636,0.6764 -19.05418,7.5331 -35.44705,12.3185 -10.13885,2.9597 -37.28312,8.6992 -40.603,8.5852 -2.70425,-0.093 -2.70487,-0.1046 -0.0637,-1.2396 z m -519.26286,-98.3088 c -1.79458,-0.3367 -6.33042,-2.5745 -10.07966,-4.9729 -14.78694,-9.4591 -22.1263,-25.59 -19.09996,-41.9792 3.09842,-16.7795 12.12326,-27.55729 31.88008,-38.07243 15.18423,-8.08148 14.57496,-7.81084 14.50775,-6.44444 -0.03,0.6111 -3.18005,2.54988 -7,4.3084 -25.01191,11.51421 -38.31317,27.49667 -38.25844,45.97037 0.0485,16.3689 7.92279,29.1437 22.83111,37.0399 4.81764,2.5516 7.87405,3.0839 17.81532,3.1029 13.16937,0.025 19.67872,-2.0051 36.66666,-11.4362 C 378.1,1058.5614 388.3,1053.0671 396,1048.9982 c 7.7,-4.069 21.43437,-11.3737 30.52084,-16.2329 9.08647,-4.8591 16.75564,-8.5999 17.0426,-8.313 0.28696,0.287 -11.04741,6.6954 -25.18751,14.241 -27.44317,14.6444 -35.36886,18.9151 -47.1518,25.4076 -13.73862,7.57 -23.67924,10.5835 -34.25457,10.3842 -5.29992,-0.1 -11.10452,-0.4571 -12.89909,-0.7939 z M 1126,1020.4423 c -2.2,-1.8319 -7.4288,-6.2976 -11.6195,-9.9237 -8.5773,-7.4215 -8.5733,-7.3615 -1.2833,-19.32581 2.1871,-3.58936 5.4695,-9.21408 7.2943,-12.49938 1.8248,-3.28529 4.201,-6.53037 5.2805,-7.21129 1.3776,-0.86896 12.8484,2.63815 38.4787,11.76451 20.0838,7.1514 43.116,15.34012 51.1826,18.19717 23.4197,8.2947 39.6408,6.6811 52.9281,-5.26533 7.2561,-6.52386 10.5242,-12.10895 13.1242,-22.42871 3.1583,-12.53621 -2.3691,-28.30509 -13.4222,-38.29085 -6.1819,-5.585 -18.5427,-12.06038 -27.1677,-14.23216 -3.3959,-0.85511 -6.4996,-2.08094 -6.8971,-2.72408 -0.9425,-1.52511 3.8531,-1.52255 5.5014,0.003 0.6967,0.64475 3.6667,1.92666 6.6,2.8487 15.6137,4.90785 27.2942,14.0977 33.3751,26.2584 3.3523,6.70409 3.867,9.24797 3.9094,19.32064 0.032,7.56152 -0.5314,12.18024 -1.6178,13.26666 -0.9167,0.91667 -1.6667,2.69832 -1.6667,3.95922 0,4.34521 -12.7473,16.54691 -21.2937,20.38231 -14.3834,6.4549 -28.8676,4.8614 -57.373,-6.31185 -4.7666,-1.8684 -23.3439,-8.60356 -41.2827,-14.96702 l -32.6161,-11.56994 -2.4716,3.15364 c -4.5314,5.78214 -15.6296,25.54807 -15.6296,27.83667 0,1.2414 3.45,5.0324 7.6667,8.4243 11.5581,9.2975 14.0948,11.5761 13.5222,12.1461 -0.2872,0.286 -2.3222,-0.9789 -4.5222,-2.8109 z M 343.4,980.17992 c 0.69667,-0.63437 8.46667,-4.91535 17.26667,-9.51325 8.8,-4.59791 16.57,-8.87888 17.26666,-9.51326 C 378.63,960.51904 379.8,960 380.53333,960 c 2.57804,0 -1.25224,2.41 -18.8457,11.85764 -16.5816,8.90428 -21.2697,11.03772 -18.28763,8.32228 z m 39.93333,-21.25847 c 0.73334,-0.67613 7.33334,-4.36876 14.66667,-8.20585 7.33333,-3.83708 14.15637,-7.76228 15.16231,-8.72265 1.54282,-1.47295 0.96876,-4.26452 -3.66927,-17.84276 -5.55635,-16.26676 -12.12516,-40.26982 -12.14755,-44.38828 -0.0293,-5.39756 -3.2889,-6.35404 -19.72281,-5.78742 -11.78157,0.40623 -13.81965,0.26214 -8.28935,-0.58605 4.03334,-0.61859 11.6962,-1.18405 17.02859,-1.25657 11.23492,-0.15282 10.81733,-0.61786 14.24868,15.86813 1.14476,5.5 5.14905,19.42609 8.89843,30.94688 3.74937,11.52079 6.49372,21.78944 6.09856,22.81923 -0.39516,1.02978 -6.91854,5.10368 -14.49638,9.0531 -15.02013,7.82823 -19.88584,10.04576 -17.77788,8.10224 z m 819.06377,-51.42346 c -14.4482,-5.27594 -26.6982,-10.02131 -27.2222,-10.5453 -1.3892,-1.38917 1.8062,-1.16548 4.5099,0.31571 1.2733,0.69761 7.4152,3.04337 13.6485,5.21279 22.4499,7.81333 38.6667,13.82484 38.6667,14.33357 0,1.24777 -4.8628,-0.28268 -29.6029,-9.31677 z m -38.0243,-13.933 c -9.201,-3.73788 -9.1344,-3.49347 -5.954,-21.84258 1.5624,-9.014 3.5508,-23.49454 4.4188,-32.17901 1.3962,-13.97051 1.8998,-15.92389 4.3702,-16.95243 1.5357,-0.63936 18.3922,-2.10608 37.4589,-3.25938 19.0666,-1.1533 56.8666,-3.57316 84,-5.37747 27.1333,-1.80431 52.6333,-3.18608 56.6666,-3.07061 12.2671,0.35116 7.7315,0.67346 -128.6666,9.14302 -24.9334,1.54823 -46.5689,3.31059 -48.079,3.91638 -2.421,0.97124 -2.9458,3.045 -4.4403,17.5456 -0.9321,9.0443 -2.887,22.97138 -4.3441,30.94906 -1.4572,7.97768 -2.3783,15.21142 -2.0469,16.07498 0.3313,0.86356 3.9717,2.63216 8.0897,3.93024 4.118,1.29808 7.4872,2.62949 7.4872,2.95868 0,1.13096 -3.342,0.446 -8.9605,-1.83648 z M 157.33333,887.13488 c -11.09742,-1.67119 -29.29407,-10.85683 -29.32167,-14.80155 -0.006,-0.91666 -0.51355,-1.66666 -1.12697,-1.66666 -0.61342,0 -2.86342,-3.45 -5,-7.66667 C 118.5566,856.43183 118,853.805 118,844.66667 c 0,-12.7348 3.80865,-22.2975 12.12167,-30.43491 12.01913,-11.76524 20.1286,-13.35905 89.87833,-17.66444 30.43333,-1.87853 63.13333,-3.96004 72.66667,-4.62556 31.24721,-2.18137 49.34586,-2.99328 48.60885,-2.18057 -0.71165,0.78474 -13.07608,1.64206 -118.60885,8.22413 C 193.7,799.79196 165.5,801.92279 160,802.72049 c -17.53507,2.54324 -29.94724,10.74474 -36.92674,24.3998 -5.03486,9.85047 -5.00359,23.76824 0.0773,34.42819 4.13804,8.68175 11.82171,16.1916 20.68619,20.21827 10.05422,4.56709 28.49808,4.30529 118.04637,-1.67564 71.35727,-4.76595 99.58052,-6.18606 92.78349,-4.6686 -1.1,0.24558 -11.95617,1.0787 -24.12484,1.85138 -108.56554,6.89364 -169.82184,10.6966 -169.84614,10.54454 -0.016,-0.0999 -1.52902,-0.40747 -3.36235,-0.68355 z M 1368,809.16991 c 26.1023,-2.08702 38.68,-3.8525 45.2611,-6.35312 16.2692,-6.18179 26.7358,-20.89246 26.7378,-37.57927 0,-12.09896 -3.0306,-20.06563 -10.591,-27.82763 -12.2578,-12.5846 -24.9768,-15.78904 -53.5694,-13.49628 -9.7377,0.78086 -21.0349,1.33826 -25.105,1.23868 -14.9104,-0.36477 11.2518,-2.45049 35.2665,-2.81152 L 1408.6667,722 l 7.9484,4 c 19.4794,9.80304 29.2125,28.54184 24.6818,47.51951 -3.7701,15.79192 -15.6317,27.78902 -31.9636,32.32857 -8.487,2.35903 -34.0558,4.89327 -46.6666,4.62533 -7.3918,-0.15704 -6.6072,-0.3488 5.3333,-1.3035 z M 350.66667,788.50699 c 1.1,-0.28436 10.03194,-1.0107 19.84877,-1.61407 14.25492,-0.87616 18.17608,-1.54465 19.47428,-3.32004 0.89403,-1.22265 2.02727,-7.04052 2.51831,-12.92859 0.9835,-11.7931 3.5505,-26.48725 7.7348,-44.27594 1.5048,-6.39742 2.40888,-12.48415 2.00905,-13.52608 -0.39983,-1.04194 -4.70839,-3.21936 -9.57459,-4.83874 -4.8662,-1.61936 -8.52885,-3.26309 -8.13921,-3.65272 0.91312,-0.91312 16.92079,4.88975 19.18689,6.95536 1.4051,1.28076 1.23123,3.40712 -0.93757,11.46642 -3.77673,14.0344 -7.76257,36.0247 -8.85828,48.87206 -0.51496,6.0379 -1.70129,12.0242 -2.63631,13.30291 -1.26697,1.73269 -4.53513,2.5604 -12.82974,3.24933 -11.72619,0.97394 -31.20502,1.19124 -27.7964,0.3101 z m 807.01983,-52.74808 c -1.7076,-2.05755 -6.2888,-20.93435 -5.3165,-21.90664 0.3445,-0.34455 1.6921,3.89888 2.9946,9.42982 1.3025,5.53095 3.1343,10.69206 4.0706,11.46914 1.6575,1.37557 11.3994,0.86986 119.2315,-6.18938 45.3368,-2.96798 60,-3.69178 60,-2.96173 0,0.68973 -6.2047,1.12303 -119.3334,8.33331 -59.6412,3.80125 -59.9983,3.81182 -61.6468,1.82548 z m -9.0084,-31.09224 c -2.4395,-8.32675 -6.2013,-18.61014 -12.7786,-34.93203 -2.1274,-5.27928 -3.5602,-10.40087 -3.1839,-11.38132 0.3762,-0.98044 2.9078,-2.96103 5.6257,-4.40131 2.7179,-1.44026 9.7044,-5.16726 15.5256,-8.2822 5.8211,-3.11494 10.8095,-5.43784 11.0854,-5.162 0.5852,0.58528 -6.998,5.04614 -20.619,12.12911 -6.746,3.50799 -9.6666,5.7778 -9.6666,7.51263 0,1.36724 2.0363,7.44292 4.5252,13.5015 6.5905,16.04306 13.0689,35.58734 12.4051,37.42431 -0.3163,0.87521 -1.6297,-2.00869 -2.9189,-6.40869 z m -773.34477,-2.71392 c -2.2,-1.0322 -14.5,-5.57264 -27.33333,-10.08987 -44.10859,-15.52585 -49.98451,-18.24488 -59.02087,-27.31143 -5.76136,-5.78058 -12.14393,-17.89756 -11.30681,-21.46536 0.42067,-1.79289 0.8364,-1.3836 1.6054,1.58058 1.48307,5.71658 7.20951,15.437 11.38956,19.33333 9.70717,9.04832 12.50371,10.347 54.41927,25.27167 33.35836,11.87774 40.34961,14.69426 36.24678,14.60252 -1.1,-0.0245 -3.8,-0.88926 -6,-1.92144 z m -98.54036,-70.44363 c 1.03811,-14.69531 8.59312,-26.14107 22.13563,-33.5352 5.99572,-3.27364 8.8968,-3.93512 19.0714,-4.34855 8.77417,-0.35652 13.43371,0.0812 17.33333,1.62826 4.14495,1.6444 4.44204,1.93984 1.33334,1.32586 -18.03794,-3.56249 -32.05051,-1.4715 -42.41611,6.32939 -10.00908,7.53261 -14.13932,15.65424 -17.50652,34.42445 -0.32888,1.83334 -0.30687,-0.78756 0.0489,-5.82421 z m 890.60703,7.3506 c 1.2196,-1.09787 10.9587,-6.37531 37.9333,-20.55532 42.3538,-22.26452 46.0136,-24.32132 54.4423,-30.59619 28.7871,-21.43121 21.7081,-63.44954 -12.3317,-73.19598 -6.5165,-1.86582 -7.2806,-2.34092 -3.8878,-2.41724 2.3226,-0.0523 7.0501,1.11693 10.5057,2.59817 12.088,5.18152 20.2674,14.46607 23.9683,27.20687 5.7276,19.71761 -3.6569,39.59257 -24.6968,52.30441 -2.5666,1.55072 -18.7939,10.33095 -36.0605,19.51161 -17.2666,9.18066 -35.3909,18.85027 -40.2762,21.48803 -8.5844,4.63501 -12.2251,6.02187 -9.5966,3.65564 z m -740.06667,-9.57031 c -3.66666,-1.3957 -15.36666,-5.61386 -26,-9.3737 -55.25734,-19.53842 -60.27905,-21.41444 -59.47478,-22.21871 0.3359,-0.33589 5.60514,1.19933 11.70942,3.41163 6.10428,2.2123 19.4987,7.02641 29.76536,10.69802 10.26667,3.67162 26.28676,9.40979 35.60022,12.7515 9.31344,3.3417 17.7452,5.76437 18.73721,5.38369 0.99203,-0.38068 2.91551,-2.62332 4.27441,-4.98365 4.05858,-7.04955 17.2128,-26.75028 19.7215,-29.53636 3.66817,-4.07375 2.88574,-6.29774 -4.64023,-13.18947 L 450,575.79807 l 7.66667,5.59449 c 10.53561,7.68801 10.53189,7.80197 -0.772,23.63572 -4.56983,6.40111 -10.36738,15.08839 -12.88344,19.30505 -5.14655,8.6251 -6.2093,8.94091 -16.6779,4.95608 z m 655.06987,-47.7851 c -0.9615,-1.37264 -6.0362,-7.22264 -11.2773,-13 -16.4006,-18.0788 -17.7494,-19.77322 -17.7713,-22.32418 -0.016,-1.84174 22.0575,-28.82182 27.9639,-34.18013 0.4042,-0.36667 6.3768,-7.24693 13.2726,-15.28947 11.7974,-13.75932 18.0883,-20.95984 22.7422,-26.03048 1.1,-1.19848 5.8886,-6.64178 10.6412,-12.09622 4.7526,-5.45444 8.9533,-10.21716 9.3348,-10.58383 0.3815,-0.36667 4.5923,-5.16667 9.3574,-10.66667 4.765,-5.5 8.965,-10.3 9.3333,-10.66666 0.3683,-0.36667 4.5683,-5.16667 9.3333,-10.66667 4.7651,-5.5 8.9654,-10.3 9.3342,-10.66667 0.3687,-0.36666 2.7127,-3.06666 5.2089,-6 2.4961,-2.93333 8.2501,-9.53333 12.7866,-14.66666 4.5365,-5.13334 18.9813,-21.63334 32.0995,-36.66667 13.1182,-15.03333 24.4632,-27.98405 25.2111,-28.77939 19.2549,-20.47704 25.4559,-32.94532 24.3989,-49.05933 -1.7783,-27.11132 -26.3878,-43.87923 -52.3725,-35.68443 -10.9454,3.45184 -20.1582,11.23488 -38.1031,32.18982 -4.71,5.5 -8.8636,10.3 -9.2302,10.66666 -1.433,1.43292 -11.6948,13.16079 -18.6667,21.33334 -7.769,9.10698 -17.5192,20.21986 -18.7174,21.33333 -0.7761,0.7212 -47.8429,54.49019 -72.3625,82.66667 -2.2336,2.56666 -6.2043,7.0825 -8.8239,10.0352 -2.6196,2.95269 -8.0629,9.20169 -12.0962,13.88666 -4.0333,4.68498 -7.9388,9.16914 -8.6788,9.9648 -2.1073,2.26579 -30.5231,34.71378 -30.9446,35.33556 -0.2071,0.30555 -0.7458,0.18632 -1.1971,-0.26496 -0.4513,-0.45128 0.6601,-2.20128 2.4698,-3.88889 1.8096,-1.6876 6.8289,-7.26837 11.1538,-12.40171 4.325,-5.13333 8.5173,-9.93333 9.3163,-10.66666 0.799,-0.73334 9.7866,-10.93334 19.9725,-22.66667 10.1859,-11.73333 20.1069,-23.13333 22.0465,-25.33333 1.9397,-2.2 8.4812,-9.7 14.5367,-16.66667 15.5988,-17.94595 25.7707,-29.56193 27.3485,-31.23112 0.7464,-0.78955 9.96,-11.33555 20.4747,-23.43555 10.5147,-12.1 21.0041,-24.10817 23.3097,-26.68481 2.3056,-2.57665 12.5856,-14.27665 22.8444,-26 23.2912,-26.61617 29.6227,-32.67827 39.1234,-37.4588 6.5185,-3.27991 9.1157,-3.80643 18.8909,-3.82956 8.9942,-0.0213 12.6233,0.58569 17.5835,2.94093 13.3536,6.34062 21.1733,16.49774 23.735,30.82982 2.8504,15.94674 -2.1272,28.6187 -18.9533,48.25158 -17.7451,20.7052 -38.9601,44.58635 -40.0311,45.06195 -0.5504,0.24445 -1.0008,1.02323 -1.0008,1.73063 0,0.7074 -1.4215,2.6074 -3.159,4.22222 -2.9935,2.78231 -39.4045,44.0574 -60.7007,68.80962 -5.4228,6.30286 -13.6064,15.65976 -18.1857,20.79309 -7.5709,8.48675 -27.9246,31.77441 -47.1514,53.94816 -13.9765,16.11875 -18.1353,20.71797 -19.1365,21.16295 -0.55,0.24445 -1,1.29445 -1,2.33333 0,1.03889 -0.5599,1.88889 -1.2441,1.88889 -0.6842,0 -3.4691,2.71534 -6.1885,6.03408 -5.9961,7.31746 -6.0411,7.18594 7.576,22.15142 5.579,6.1313 12.0911,13.39784 14.4715,16.14784 5.0964,5.88777 6.7817,6.075 14.5761,1.61941 3.2217,-1.84167 6.0988,-3.10733 6.3936,-2.8126 1.0927,1.09276 -11.5127,7.52652 -14.7465,7.52652 -1.8445,0 -4.1402,-1.12307 -5.1016,-2.49569 z M 437.33333,566.49653 C 431.1,561.33876 423.6,555.14553 420.66667,552.73383 409.48609,543.54145 388.55417,526.31324 386,524.20112 c -1.46667,-1.21284 -5.6492,-4.60425 -9.29453,-7.53647 -3.64532,-2.93222 -7.74574,-6.23132 -9.11202,-7.33132 -1.36629,-1.1 -4.08376,-3.37993 -6.03881,-5.06652 C 359.59959,502.58023 349,493.91417 338,485.00889 c -11,-8.90526 -20.3,-16.54412 -20.66667,-16.97521 -0.36666,-0.43109 -5.44724,-4.66503 -11.29016,-9.40875 C 281.58541,438.76833 276.31925,433.82047 271.31941,426 c -5.82284,-9.10777 -7.63033,-15.34151 -7.47785,-25.78967 0.24491,-16.78102 10.71968,-31.65277 26.436,-37.533 7.87772,-2.94744 19.45644,-3.47684 27.45623,-1.25536 5.06045,1.40526 19.22821,9.13163 22.52377,12.28334 0.95833,0.9165 4.44244,3.74912 7.74244,6.29469 3.3,2.54557 6.81595,5.41003 7.8132,6.36545 1.79608,1.72074 67.71075,55.85707 101.83075,83.63455 28.42586,23.14181 52.26014,42.72819 58.8159,48.33333 4.50296,3.85 9.24708,7 10.5425,7 1.29541,0 7.3684,-3.75 13.49552,-8.33333 6.1271,-4.58333 14.56624,-10.65049 18.75361,-13.48256 4.18737,-2.83208 7.90151,-5.9 8.25361,-6.8176 0.54115,-1.41019 -29.1862,-56.68404 -33.2007,-61.73207 -0.74308,-0.93438 -0.96556,-2.08438 -0.49439,-2.55554 1.14639,-1.14639 0.77793,-1.72287 9.53689,14.9211 4.24512,8.06667 8.34594,15.4694 9.11292,16.45051 1.33814,1.71171 8.49252,14.79745 14.43807,26.408 1.55615,3.03885 2.45959,6.48875 2.00767,7.66644 -0.45192,1.17769 -5.19055,4.95745 -10.53028,8.39947 -8.09864,5.22041 -17.60846,12.05278 -24.45926,17.57285 -4.35084,3.50572 -7.44001,4.33873 -9.6679,2.60701 -5.34474,-4.15444 -15.63683,-12.49872 -16.24811,-13.1731 -0.36667,-0.40452 -8.76667,-7.27134 -18.66667,-15.2596 -9.9,-7.98827 -19.2,-15.57164 -20.66666,-16.85196 -1.46667,-1.28032 -6.56667,-5.48171 -11.33334,-9.33642 -4.76666,-3.85472 -8.96666,-7.34172 -9.33333,-7.74889 -0.36667,-0.40717 -5.16667,-4.33761 -10.66667,-8.73431 -5.5,-4.39669 -10.3,-8.32749 -10.66666,-8.7351 C 426.3,446.1906 421.5,442.31391 416,437.98333 c -5.5,-4.33057 -10.6,-8.55682 -11.33333,-9.39168 -0.73334,-0.83485 -7.93334,-6.81961 -16,-13.29948 -8.06667,-6.47985 -19.76667,-16.0362 -26,-21.23632 -33.2404,-27.73056 -40.4704,-31.8184 -56.52688,-31.96033 -12.93754,-0.1144 -20.5529,2.91005 -29.24663,11.61516 -7.55043,7.56032 -10.55213,14.3994 -11.24589,25.62265 -0.6327,10.23562 2.55506,21.42218 7.8371,27.50214 1.51208,1.74049 3.14668,3.76453 3.63243,4.49786 0.96269,1.45335 13.65585,13.05 18.97227,17.33334 1.8204,1.46666 7.79508,6.26666 13.27704,10.66666 5.48197,4.4 10.78753,8.77746 11.79013,9.72767 1.69639,1.60776 23.32704,19.41732 32.7004,26.92381 13.31963,10.6668 66.46647,54.43731 72.29925,59.544 1.5524,1.35915 7.07184,5.77119 12.26542,9.80452 5.19357,4.03334 9.7546,8.08334 10.1356,9 0.95518,2.29811 1.40072,2.6092 -11.22358,-7.8368 z M 1104,575.46796 c 0,-0.29263 2.55,-1.85964 5.6667,-3.48224 3.1166,-1.62261 8.6666,-4.60501 12.3333,-6.62756 3.6667,-2.02255 14.4667,-7.7358 24,-12.69612 9.5333,-4.96031 17.9333,-9.45905 18.6667,-9.99719 0.7333,-0.53814 9.7333,-5.34974 20,-10.69245 10.2666,-5.34269 19.3222,-10.21723 20.1234,-10.83228 4.5689,-3.50723 21.4905,-9.12541 27.06,-8.98425 l 6.1499,0.15588 -6.8784,1.149 c -9.5503,1.5953 -17.5911,4.9708 -37.7114,15.83109 -9.5525,5.15616 -17.6047,9.37483 -17.8936,9.37483 -0.289,0 -5.2484,2.60628 -11.021,5.79173 -5.7726,3.18544 -18.5956,10.03149 -28.4956,15.21344 -9.9,5.18196 -20.7,10.96845 -24,12.85888 -5.7146,3.27365 -8,4.11276 -8,2.93724 z M 974.66667,490.34607 C 972.1,488.80712 962.95,484.05785 954.33333,479.79212 c -8.61666,-4.26572 -15.66666,-8.43749 -15.66666,-9.27059 0,-1.12718 0.46472,-1.12904 1.81637,-0.007 4.15287,3.44657 42.07661,21.4431 43.79615,20.78325 1.02802,-0.39449 5.13577,-4.5876 9.1283,-9.31803 3.99255,-4.73042 7.76851,-8.61098 8.39111,-8.62346 0.9289,-0.0187 -8.54192,11.77578 -14.70336,18.31064 -2.26728,2.40468 -7.06585,1.89481 -12.42857,-1.3206 z m -35.62823,-26.6794 c 0.37544,-1.65 5.01077,-15.3 10.30073,-30.33334 22.5005,-63.94342 27.01104,-77.00745 28.70456,-83.13792 1.87612,-6.79148 3.2896,-9.35597 3.2896,-5.96838 0,2.52158 -9.37789,30.00969 -32.90153,96.43964 -2.59683,7.33333 -5.60145,16.18333 -6.67695,19.66666 -1.97896,6.40952 -3.97324,8.85671 -2.71641,3.33334 z M 645.65457,457 c -1.54565,-1.65 -3.45373,-4.8 -4.2402,-7 -1.17709,-3.29275 -1.13385,-3.60508 0.24452,-1.76649 0.92095,1.22842 2.73547,4.14626 4.03228,6.48408 1.82407,3.28833 3.03143,4.10298 5.33334,3.59857 6.45936,-1.4154 28.46882,-7.92455 31.10984,-9.20051 1.54056,-0.7443 4.24056,-1.10804 6,-0.80829 3.02492,0.51532 2.98133,0.59933 -0.80102,1.54405 -2.2,0.54951 -11.41244,3.05774 -20.47209,5.57384 C 657.80159,457.94136 649.95617,460 649.42699,460 c -0.52919,0 -2.22678,-1.35 -3.77242,-3 z m 49.79096,-10.17413 c 1.52838,-0.68366 7.52838,-1.94451 13.33334,-2.80192 18.66621,-2.75704 16.55446,0.94961 16.55446,-29.05738 0,-14.34273 0.21792,-25.82768 0.48427,-25.52213 1.09113,1.25175 2.09416,50.02279 1.06167,51.62212 -0.98228,1.52157 -11.86252,3.87888 -28.87927,6.25696 -3.93669,0.55016 -4.60563,0.41983 -2.55447,-0.49765 z m -57.72064,-3.12698 c -0.72698,-0.9344 -3.88857,-6.49889 -7.02574,-12.36556 -9.39374,-17.56668 -24.10692,-43.5306 -28.90062,-51 -2.47084,-3.85 -4.0363,-6.99257 -3.47881,-6.98349 1.59169,0.0259 6.26484,7.73376 24.58664,40.55295 14.99697,26.86358 19.35561,35.62762 14.81853,29.7961 z m 192.94178,-0.64718 c -7.7,-1.0378 -14.9,-2.3612 -16,-2.9409 -2.54514,-1.34125 -3.7435,-16.7111 -3.64712,-46.77748 0.0683,-21.28085 0.11026,-20.93218 1.28513,10.66667 0.81693,21.97095 1.72988,33.14125 2.78831,34.11615 1.91313,1.76213 35.50518,6.33809 38.39298,5.22994 1.13111,-0.43405 3.61206,-5.41449 5.51322,-11.06764 1.90116,-5.65314 7.64478,-22.27845 12.76361,-36.94512 30.47116,-87.30718 29.78839,-85.65378 39.36539,-95.32653 16.25206,-16.41452 43.18777,-16.92031 59.35432,-1.11451 8.88358,8.68535 14.24317,24.99047 12.19753,37.10771 -0.91656,5.42912 -1.02881,5.01404 -1.17981,-4.36261 C 981.21797,314.11145 973.30116,300.539 959.14237,293.30744 953.75079,290.55371 950.76931,290 941.33333,290 c -24.4203,0 -35.15806,11.23256 -49.07209,51.33333 C 867.8182,411.77913 858.25839,439.08237 856.6642,443 c -1.13816,2.79695 -5.56393,2.80575 -25.99753,0.0517 z m -302.7542,-20.8205 c -14.36592,-30.69926 1.07006,-62.53296 31.88357,-65.75361 12.26616,-1.28207 29.10795,4.97224 36.11057,13.40988 2.95388,3.5592 0.0492,2.34997 -4.99618,-2.07993 -7.58259,-6.65762 -15.5719,-9.56984 -26.24376,-9.56627 -15.75976,0.005 -27.90168,7.17713 -36.27936,21.42919 -3.3667,5.7274 -3.72064,7.53453 -3.72064,18.9962 0,11.53852 0.388,13.48597 4.35645,21.86577 2.39605,5.05951 4.05645,9.49909 3.68979,9.86576 -0.36667,0.36667 -2.52687,-3.30848 -4.80044,-8.16699 z m 195.5739,-66.56454 c -0.48858,-15.58334 -2.07388,-65.23334 -3.52288,-110.33334 -1.824,-56.7716 -2.23753,-84.4057 -1.34409,-89.81928 3.60103,-21.81945 18.96403,-36.57939 39.44188,-37.89357 11.04361,-0.70874 17.32727,0.89885 25.93872,6.63609 8.12552,5.41349 14.38792,13.97978 17.57585,24.04191 2.30356,7.27072 2.89027,15.45013 4.47372,62.36819 1.00236,29.7 2.45614,70.2 3.2306,90 1.31848,33.70746 1.6557,69.16997 0.61494,64.66666 -0.25422,-1.1 -1.41212,-33.2 -2.57312,-71.33333 C 803.21188,159.00257 803.00873,155.46573 798.74715,144.71127 796.57723,139.23527 787.82289,128 785.72601,128 784.77671,128 784,127.50256 784,126.89458 c 0,-0.60798 -3.10993,-2.55798 -6.91095,-4.33333 -5.37374,-2.50993 -9.03576,-3.21068 -16.46356,-3.15042 -21.13117,0.17142 -36.78037,14.68729 -40.45889,37.52882 -1.25949,7.8208 -1.05845,17.39898 2.51301,119.72702 C 724.7782,336.79448 725.82828,384 725.06723,384 c -0.3809,0 -1.09228,-12.75 -1.58086,-28.33333 z"
         id="path299" />
      <path
         style="fill:#ffff00;fill-opacity:1;stroke-width:1.33333"
         d="m 787.93763,1429.4837 c -11.2099,-3.6581 -22.39363,-15.2108 -26.80536,-27.6894 -3.12416,-8.8368 -3.26852,-11.672 -7.30766,-143.5156 -1.32082,-43.1135 -2.81344,-79.0546 -3.31693,-79.8693 -0.50351,-0.8147 -9.22371,-2.5499 -19.37824,-3.8561 -10.15452,-1.3062 -22.58343,-3.073 -27.61977,-3.9262 -7.47279,-1.2659 -9.47024,-1.221 -10.86015,0.2442 -0.93673,0.9874 -3.91412,8.0954 -6.6164,15.7954 -18.48633,52.6756 -23.67625,67.6507 -24.25988,70 -0.36437,1.4666 -1.18073,3.8666 -1.81415,5.3333 -0.63342,1.4667 -3.09897,7.4667 -5.47902,13.3333 -9.18155,22.632 -28.54778,34.4148 -49.43676,30.0782 -18.34942,-3.8093 -31.75246,-21.1079 -31.68915,-40.8995 0.0336,-10.4914 3.66305,-22.4948 23.33673,-77.1787 10.02039,-27.8521 13.90624,-39.8035 13.94215,-42.8807 0.0247,-2.1165 -1.64645,-3.7238 -6.29971,-6.0589 -11.16316,-5.6017 -30.11845,-16.1125 -37.40049,-20.7386 -3.8896,-2.471 -8.36708,-4.302 -9.95829,-4.0724 -1.84848,0.2668 -13.61828,12.679 -32.63606,34.4173 -16.35972,18.7 -31.6945,36.1 -34.0773,38.6667 -4.63191,4.9893 -18.39611,20.8003 -23.70772,27.2332 -3.26496,3.9541 -10.06291,11.7428 -23.94399,27.4334 -12.4974,14.1266 -30.41385,34.5579 -43.94032,50.1079 -6.96531,8.0074 -14.69987,16.796 -17.18793,19.5304 -2.48807,2.7344 -5.38899,6.207 -6.4465,7.7168 -2.14353,3.0603 -3.49825,4.5381 -17.49981,19.0904 -13.12508,13.6413 -22.71476,18.4999 -36.69229,18.59 -8.3942,0.053 -11.13526,-0.5363 -17.54163,-3.7776 -18.77832,-9.5009 -27.09595,-30.605 -20.11244,-51.0306 1.91523,-5.6018 12.60041,-21.9364 16.72027,-25.5606 0.6262,-0.5509 12.51152,-13.9904 33.60542,-38 1.93283,-2.2 8.46979,-9.7 14.52655,-16.6667 6.05677,-6.9666 13.17536,-15.0673 15.81909,-18.0014 2.64372,-2.9341 6.84914,-7.7341 9.34534,-10.6666 2.49621,-2.9326 8.00412,-9.232 12.2398,-13.9986 17.14214,-19.2911 38.2343,-43.3187 43.8883,-49.9962 5.80311,-6.8537 28.6223,-33.1646 31.33334,-36.1279 20.76808,-22.7006 29.975,-33.7208 29.97268,-35.8759 -7.9e-4,-0.7334 -2.2688,-3.7334 -5.04004,-6.6667 -2.77124,-2.9333 -9.99426,-11.4833 -16.05116,-19 -6.0569,-7.5167 -11.56446,-13.6667 -12.23904,-13.6667 -1.41704,0 -34.26122,16.9022 -45.71388,23.5252 -4.25595,2.4611 -8.01391,4.4748 -8.351,4.4748 -0.3371,0 -9.15495,4.6409 -19.59523,10.313 -29.54101,16.0495 -31.57633,16.7926 -46.31567,16.9112 -10.82,0.087 -13.51448,-0.35 -18.48198,-2.9974 -14.9358,-7.96 -22.78263,-20.6969 -22.83111,-37.0591 -0.0545,-18.4156 12.37805,-33.44739 37.97976,-45.91985 3.66667,-1.7863 6.86667,-3.69782 7.11111,-4.24782 0.24445,-0.55 1.00234,-1 1.68421,-1 0.68188,0 8.58188,-3.98614 17.55556,-8.85809 8.97368,-4.87195 22.61579,-12.14628 30.31579,-16.16517 C 412.21441,945.06355 416,942.71304 416,940.58036 c 0,-1.08565 -2.72219,-10.08061 -6.04929,-19.98881 -3.32712,-9.90822 -7.45535,-24.23584 -9.17386,-31.83918 -1.7185,-7.60334 -3.53173,-14.48308 -4.0294,-15.28832 -1.1323,-1.8321 -10.21304,-1.8705 -30.74745,-0.13 -44.17972,3.74471 -190.41635,12.23146 -202.40672,11.74655 -15.56827,-0.62963 -22.58349,-3.09943 -31.38223,-11.04856 -16.55018,-14.95208 -17.14254,-42.81513 -1.23344,-58.01716 12.48731,-11.93232 20.08812,-13.55896 81.02239,-17.33941 24.56667,-1.52416 62.96667,-4.0031 85.33333,-5.50876 46.62563,-3.13872 76.8311,-4.94206 85,-5.0747 8.5061,-0.13812 10.43459,-2.84273 11.57742,-16.23672 1.11233,-13.03678 5.07925,-34.9715 8.87665,-49.0827 2.17141,-8.06902 2.34436,-10.19198 0.93757,-11.50908 -0.94873,-0.88826 -6.82497,-3.41699 -13.0583,-5.61939 -71.71208,-25.33783 -88.14684,-31.68443 -93.82955,-36.23415 -11.65208,-9.32892 -19.53323,-23.1542 -19.42553,-34.07664 0.16521,-16.75685 12.96906,-33.87489 28.96926,-38.7303 12.67178,-3.84538 24.16476,-2.34564 46.95248,6.12688 6.23334,2.31757 17.03334,6.21165 24,8.6535 6.96667,2.44187 22.86667,8.0773 35.33334,12.52318 12.46666,4.44588 23.58989,8.08566 24.71828,8.08841 1.12838,0.003 4.11021,-3.445 6.62628,-7.66167 2.51606,-4.21666 8.31361,-12.90394 12.88344,-19.30505 11.30101,-15.82972 11.30396,-15.92011 0.772,-23.71671 -4.21667,-3.12152 -8.26667,-6.36722 -9,-7.21269 -0.73334,-0.84547 -5.83334,-5.11359 -11.33334,-9.48472 -5.5,-4.37112 -10.68713,-8.59177 -11.52696,-9.37923 -2.68894,-2.52122 -58.40613,-48.40396 -71.94973,-59.25012 -9.37336,-7.50649 -31.00401,-25.31605 -32.7004,-26.92381 -1.0026,-0.95021 -6.30816,-5.32767 -11.79013,-9.72767 -5.48196,-4.4 -11.45664,-9.2 -13.27704,-10.66666 -5.31642,-4.28334 -18.00958,-15.87999 -18.97227,-17.33334 -0.48575,-0.73333 -2.12035,-2.75737 -3.63243,-4.49786 -5.28204,-6.07996 -8.4698,-17.26652 -7.8371,-27.50214 0.69376,-11.22325 3.69546,-18.06233 11.24589,-25.62265 8.69373,-8.70511 16.30909,-11.72952 29.24663,-11.61516 16.05648,0.14193 23.28648,4.22977 56.52688,31.96033 6.23333,5.20012 17.93333,14.75647 26,21.23632 8.06666,6.47987 15.26666,12.46463 16,13.29948 0.73333,0.83486 5.83333,5.06111 11.33333,9.39168 5.5,4.33058 10.3,8.20727 10.66667,8.6149 0.36666,0.40761 5.16666,4.33841 10.66666,8.7351 5.5,4.3967 10.3,8.32714 10.66667,8.73431 0.36667,0.40717 4.56667,3.89417 9.33333,7.74889 4.76667,3.85471 9.86667,8.0561 11.33334,9.33642 1.46666,1.28032 10.76666,8.86369 20.66666,16.85196 9.9,7.98826 18.3,14.85508 18.66667,15.2596 0.61128,0.67438 10.90337,9.01866 16.24811,13.1731 2.22789,1.73172 5.31706,0.89871 9.6679,-2.60701 6.8508,-5.52007 16.36062,-12.35244 24.45926,-17.57285 5.33973,-3.44202 10.07836,-7.22178 10.53028,-8.39947 0.45192,-1.17769 -0.45152,-4.62759 -2.00767,-7.66644 -5.94555,-11.61055 -13.09993,-24.69629 -14.43807,-26.408 -0.76698,-0.98111 -4.87684,-8.38384 -9.133,-16.45051 -4.25616,-8.06666 -8.11314,-14.96666 -8.57109,-15.33333 -0.45795,-0.36667 -2.91532,-5.16667 -5.46084,-10.66667 -4.25552,-9.19473 -4.62821,-11.02 -4.62821,-22.66666 0,-11.46167 0.35394,-13.2688 3.72064,-18.9962 8.42213,-14.32766 20.503,-21.42274 36.49084,-21.43103 15.31018,-0.008 28.11568,7.75125 37.36598,22.64104 4.78412,7.70079 20.47794,35.53177 28.4502,50.45285 C 633.82887,437.2 637.1452,442.9 638.06396,444 c 0.91876,1.1 2.54743,4.1 3.61924,6.66667 1.07181,2.56666 3.204,5.7847 4.73817,7.1512 2.73391,2.43509 3.1422,2.38737 20.51736,-2.39807 27.07912,-7.45809 25.16324,-7.02924 50.98384,-11.41233 4.35742,-0.73968 8.44236,-2.09396 9.07767,-3.00951 0.63532,-0.91555 0.80532,-8.56463 0.37781,-16.99796 -0.42752,-8.43333 -1.3534,-35.79857 -2.0575,-60.81164 -0.70411,-25.01305 -1.8993,-63.71305 -2.65595,-86 -0.75667,-22.28693 -1.91939,-56.65249 -2.58384,-76.36792 -1.57948,-46.86607 -0.22713,-55.1374 11.18425,-68.40584 10.76098,-12.51219 30.87267,-16.83672 45.82404,-9.85335 3.80102,1.77535 6.91095,3.72535 6.91095,4.33333 0,0.60798 0.77671,1.10542 1.72601,1.10542 2.24875,0 10.73724,11.22873 13.4594,17.80432 3.00039,7.24768 4.52943,23.54713 5.45928,58.19568 0.44282,16.5 1.68258,56.4 2.75503,88.66667 1.07247,32.26666 2.54603,78.145 3.27457,101.95184 0.96363,31.48834 1.77902,43.70212 2.99184,44.81502 1.49214,1.3692 16.18466,3.683 35.13422,5.533 5.75126,0.56148 6.95561,0.28103 7.80684,-1.81798 1.66721,-4.1111 11.03513,-30.86252 35.65405,-101.81522 10.55528,-30.42073 17.40869,-40.95 31.25803,-48.02337 5.39706,-2.75649 8.37581,-3.30996 17.81406,-3.30996 9.43598,0 12.41746,0.55371 17.80904,3.30744 8.91234,4.55195 13.85792,9.87509 18.45908,19.86835 3.54167,7.6921 3.86584,9.54842 3.37624,19.33333 -0.67397,13.47004 0.16094,10.81404 -31.6937,100.82421 -5.32031,15.03334 -9.94447,29.86264 -10.27591,32.954 l -0.60261,5.62067 15.79726,7.81733 c 8.6885,4.29954 18.06552,9.12023 20.83783,10.71267 2.77231,1.59243 6.26516,2.89533 7.76189,2.89533 3.04826,0 3.04236,0.005 13.18926,-12 4.02879,-4.76666 7.62879,-8.96666 7.99999,-9.33333 0.3712,-0.36667 7.2695,-8.16667 15.3295,-17.33333 8.06,-9.16667 15.26,-17.31767 16,-18.11334 0.74,-0.79566 4.6455,-5.27982 8.6788,-9.9648 4.0333,-4.68497 9.4766,-10.93397 12.0962,-13.88666 2.6196,-2.9527 6.5903,-7.46854 8.8239,-10.0352 24.5196,-28.17648 71.5864,-81.94547 72.3625,-82.66667 1.1982,-1.11347 10.9484,-12.22635 18.7174,-21.33333 6.9719,-8.17255 17.2337,-19.90042 18.6667,-21.33334 0.3666,-0.36666 4.5202,-5.16666 9.2302,-10.66666 12.272,-14.33048 24.11,-25.7992 29.4689,-28.54978 14.1883,-7.28238 27.9943,-7.60078 40.6342,-0.93716 20.979,11.05998 27.1101,39.82591 12.9959,60.97516 -3.112,4.66318 -12.3575,16.10483 -17.0223,21.06572 -0.7479,0.79534 -12.0929,13.74606 -25.2111,28.77939 -13.1182,15.03333 -27.563,31.53333 -32.0995,36.66667 -4.5365,5.13333 -10.2905,11.73333 -12.7866,14.66666 -2.4962,2.93334 -4.8402,5.63334 -5.2089,6 -0.3688,0.36667 -4.5691,5.16667 -9.3342,10.66667 -4.765,5.5 -8.965,10.3 -9.3333,10.66667 -0.3683,0.36666 -4.5683,5.16666 -9.3333,10.66666 -4.7651,5.5 -8.9759,10.3 -9.3574,10.66667 -0.3815,0.36667 -4.5822,5.12939 -9.3348,10.58383 -4.7526,5.45444 -9.5412,10.89774 -10.6412,12.09622 -4.6539,5.07064 -10.9448,12.27116 -22.7422,26.03048 -6.8958,8.04254 -12.8684,14.9228 -13.2726,15.28947 -5.9064,5.35831 -27.9796,32.33839 -27.9639,34.18013 0.022,2.55096 1.3707,4.24538 17.7713,22.32418 5.2411,5.77736 10.3158,11.62736 11.2773,13 2.0539,2.93236 7.8763,3.27329 11.6335,0.6812 1.4465,-0.99796 8.63,-4.96962 15.9633,-8.8259 7.3333,-3.85626 20.2333,-10.63524 28.6667,-15.06437 8.4333,-4.42913 20.0563,-10.65748 25.8289,-13.84077 5.7726,-3.1833 10.732,-5.7878 11.021,-5.7878 0.2889,0 8.3411,-4.21867 17.8936,-9.37483 28.704,-15.49347 39.4332,-18.52936 53.1032,-15.02593 27.9501,7.16317 39.8311,37.46473 24.295,61.96252 -6.7119,10.58358 -12.2674,14.13941 -66.8084,42.76146 -7.7,4.04082 -16.7,8.83252 -20,10.64826 -3.3,1.81572 -12,6.47748 -19.3333,10.35944 -7.3334,3.88196 -17.3721,9.20849 -22.3083,11.83674 -4.9363,2.62824 -9.2803,5.57426 -9.6534,6.54668 -0.3732,0.97243 0.2759,3.98451 1.4423,6.69352 7.0944,16.4766 16.6246,44.8498 19.7803,58.88959 1.2318,5.48027 2.9185,10.78217 3.7483,11.78201 1.6358,1.97103 4.6643,1.8834 60.9908,-1.76457 15.7666,-1.02113 39.1666,-2.50369 52,-3.29457 12.8333,-0.79088 35.9333,-2.29404 51.3333,-3.34036 15.4,-1.04631 37.9597,-2.55328 50.1327,-3.34882 33.385,-2.18181 44.6574,0.45783 57.2752,13.41208 19.7804,20.30776 11.2998,54.978 -15.9838,65.34496 -7.6152,2.89355 -21.0073,4.62767 -50.7574,6.57251 -45.4588,2.97176 -124.5439,7.97883 -158,10.00336 -19.0667,1.15377 -35.9232,2.62089 -37.4589,3.26025 -2.4704,1.02854 -2.974,2.98192 -4.3702,16.95243 -0.868,8.68447 -2.849,23.12295 -4.4024,32.08552 -2.0581,11.87424 -2.4312,16.76932 -1.3753,18.04157 0.7969,0.9603 4.6345,2.83806 8.5279,4.1728 3.8934,1.33475 8.8789,3.18587 11.0789,4.1136 2.2,0.92775 15.4,5.72367 29.3333,10.65763 13.9333,4.93396 27.224,9.81412 29.5348,10.84483 2.3109,1.03069 5.0278,1.87398 6.0377,1.87398 3.6584,0 20.9603,9.21931 26.2206,13.97166 11.2246,10.14078 16.7711,25.82832 13.5925,38.44477 -2.6,10.31976 -5.8681,15.90485 -13.1242,22.42871 -13.2873,11.94643 -29.5084,13.56003 -52.9281,5.26533 -8.0666,-2.85705 -31.0988,-11.04577 -51.1826,-18.19717 -25.6303,-9.12636 -37.1011,-12.63347 -38.4787,-11.76451 -1.0795,0.68092 -3.4557,3.926 -5.2805,7.21129 -1.8248,3.2853 -5.1072,8.91002 -7.2943,12.49938 -6.8139,11.18291 -6.867,11.86371 -1.3314,17.06021 2.6955,2.5303 13.3009,11.4548 23.5675,19.8322 10.2667,8.3774 19.8667,16.2523 21.3334,17.4998 1.4666,1.2475 8.4165,6.9511 15.444,12.6749 7.0276,5.7237 18.9845,15.5068 26.5711,21.7401 7.5865,6.2333 19.2329,15.7345 25.8808,21.1136 6.6479,5.3792 12.391,10.1817 12.7623,10.6722 0.3713,0.4905 5.1751,4.4801 10.6751,8.8659 22.7742,18.1606 26.8057,21.6176 32.3891,27.7738 2.7806,3.066 6.6806,8.8745 8.6666,12.9078 3.115,6.3262 3.611,8.9815 3.611,19.3334 0,10.7911 -0.3789,12.6324 -3.7609,18.2779 -9.9176,16.5551 -27.6559,23.9209 -46.1787,19.1756 -10.1515,-2.6007 -20.456,-9.2959 -41.3938,-26.8951 -8.4333,-7.0886 -22.8333,-18.9293 -32,-26.3128 -9.1666,-7.3834 -16.9666,-13.7605 -17.3333,-14.1714 -0.3667,-0.4108 -5.1667,-4.3442 -10.6667,-8.7409 -5.5,-4.3967 -10.3,-8.3859 -10.6666,-8.8649 -0.3667,-0.4789 -4.1557,-3.5792 -8.4201,-6.8893 -4.2643,-3.3102 -10.2643,-8.1369 -13.3333,-10.726 -29.2457,-24.6731 -55.1627,-44.8531 -57.6043,-44.8531 -1.5926,0 -4.0387,1.2781 -5.4357,2.8403 -2.8975,3.2401 -27.014,23.1322 -33.54,27.6648 -5.3713,3.7308 -5.6698,8.2423 -1,15.1146 1.8334,2.698 3.3334,5.1747 3.3334,5.5037 0,0.329 4.8,9.1235 10.6666,19.5432 5.8667,10.4198 10.6667,19.1502 10.6667,19.4011 0,0.2508 2.0195,3.9382 4.4879,8.1942 7.2418,12.4865 9.2432,20.3086 8.5848,33.5519 -0.6641,13.356 -2.3881,17.2436 -11.7394,26.4716 -6.9788,6.8868 -14.0973,10.0254 -24.4186,10.7663 -14.89039,1.0688 -25.37913,-3.5901 -36.13779,-16.0518 -3.39023,-3.9269 -7.41528,-9.5083 -8.94456,-12.4032 -1.52928,-2.8949 -3.85791,-7.0634 -5.17475,-9.2634 -2.82956,-4.7273 -4.62737,-7.9651 -16.65779,-30 -14.17754,-25.9676 -14.10113,-25.8925 -22.46497,-22.0897 -2.31083,1.0506 -10.20151,3.8168 -17.53484,6.1471 -7.33333,2.3303 -15.73333,5.0006 -18.66667,5.934 -2.93333,0.9335 -12.53333,3.2857 -21.33333,5.2273 -26.38339,5.8212 -27.95124,6.2223 -29.21536,7.4746 -1.08187,1.0718 0.69009,71.874 4.47083,178.64 0.61025,17.2334 0.63245,34.7592 0.0493,38.9464 -2.1134,15.1755 -11.13739,28.4235 -23.76072,34.8827 -5.40272,2.7645 -23.82257,4.2088 -29.60644,2.3213 z"
         id="path297" />
    </g>
  </g>
</svg>
