<?xml version="1.0" encoding="UTF-8" standalone="no"?>
<!-- Created with Inkscape (http://www.inkscape.org/) -->

<svg
   version="1.1"
   id="svg89"
   width="910"
   height="858.66669"
   viewBox="0 0 910 858.66669"
   sodipodi:docname="blackLogo.svg"
   inkscape:version="1.2.2 (b0a84865, 2022-12-01)"
   xmlns:inkscape="http://www.inkscape.org/namespaces/inkscape"
   xmlns:sodipodi="http://sodipodi.sourceforge.net/DTD/sodipodi-0.dtd"
   xmlns="http://www.w3.org/2000/svg"
   xmlns:svg="http://www.w3.org/2000/svg">
  <defs
     id="defs93" />
  <sodipodi:namedview
     id="namedview91"
     pagecolor="#ffffff"
     bordercolor="#000000"
     borderopacity="0.25"
     inkscape:showpageshadow="2"
     inkscape:pageopacity="0.0"
     inkscape:pagecheckerboard="0"
     inkscape:deskcolor="#d1d1d1"
     showgrid="false"
     inkscape:zoom="1.0395604"
     inkscape:cx="455"
     inkscape:cy="429.50846"
     inkscape:window-width="3440"
     inkscape:window-height="1387"
     inkscape:window-x="1440"
     inkscape:window-y="25"
     inkscape:window-maximized="1"
     inkscape:current-layer="g95" />
  <g
     inkscape:groupmode="layer"
     inkscape:label="Image"
     id="g95">
    <path
       style="fill:#000000;stroke-width:0.666667"
       d="m 443.45209,20.614727 c 0.98199,0.317734 2.91136,1.434467 4.28749,2.481534 2.2286,1.695733 7.23383,11.4122 45.79687,88.903799 23.81216,47.85 51.321,103.20001 61.13077,123.00001 9.80977,19.8 33.73396,67.97802 53.16487,107.06227 19.43092,39.08426 35.69917,72.1841 36.15168,73.5552 1.54236,4.67342 -0.23318,12.87986 -3.77499,17.44778 -1.10938,1.43078 -8.18868,16.25142 -15.73178,32.93475 -19.81241,43.81981 -29.89171,66.05804 -68.13743,150.33334 -18.80322,41.43333 -42.95643,94.68334 -53.67379,118.33334 -35.31947,77.93951 -37.26568,82.16532 -38.98222,84.64229 -2.47259,3.56795 -6.5275,5.65036 -11.02229,5.66052 -4.27815,0.01 -7.22419,-1.44532 -10.07904,-4.97783 -1.04085,-1.28792 -8.22822,-15.38792 -15.97192,-31.33333 -7.74372,-15.94541 -18.66708,-38.44165 -24.27414,-49.99165 -5.60707,-11.55 -13.18485,-27.15 -16.83952,-34.66667 -12.79124,-26.30817 -29.10022,-59.86526 -40.33857,-83 -6.23415,-12.83334 -14.18089,-29.18334 -17.65942,-36.33334 -3.47853,-7.15 -8.35235,-17.2 -10.83072,-22.33333 -2.47836,-5.13333 -7.35445,-15.18334 -10.83576,-22.33334 -3.48131,-7.15 -14.13033,-29.05 -23.66451,-48.66666 -9.53418,-19.61667 -20.22224,-41.54934 -23.75126,-48.73926 C 252.53572,430.61301 252,429.19726 252,425.63747 c 0,-3.12729 0.44954,-4.75275 2.30719,-8.34241 2.37899,-4.59707 5.29776,-11.13559 44.02725,-98.62832 12.57891,-28.41667 35.82415,-80.91667 51.65607,-116.66667 15.83194,-35.75001 39.60061,-89.45001 52.81929,-119.333341 13.21867,-29.883334 24.81316,-55.424868 25.76552,-56.758935 0.95235,-1.334067 2.68331,-3.077733 3.84656,-3.8748 2.35161,-1.611333 8.13529,-2.355 11.03021,-1.418267 z m 37.03812,346.192843 c 3.19928,4.96019 65.12605,101.78756 75.16466,117.52584 3.70159,5.80326 4.98061,8.94875 4.99716,12.28952 0.0453,9.14123 -9.33815,15.32114 -17.38577,11.45024 -3.90254,-1.87712 -3.41452,-1.56668 -40.86549,-25.99426 -11.32958,-7.38976 -20.72909,-13.30607 -20.88782,-13.14734 -0.15872,0.15872 8.33474,16.13907 18.87436,35.51188 10.53963,19.37281 21.35346,39.24958 24.03074,44.17059 2.72112,5.00162 5.05074,10.16743 5.28267,11.71408 0.89763,5.98585 -2.51343,11.93238 -8.05971,14.05052 -6.43704,2.45833 -10.26729,0.64482 -31.86673,-15.08794 -9.10748,-6.63377 -16.69559,-11.92487 -16.86245,-11.75801 -0.34343,0.34342 25.296,69.91021 28.80706,78.16148 3.66816,8.62043 2.8037,15.14453 -2.54607,19.21538 -3.22962,2.45755 -4.86832,2.67524 -20.45997,2.71801 l -14.28716,0.0392 0.10658,4 c 0.0586,2.2 0.44262,23.95 0.85334,48.33333 0.41073,24.38334 0.94199,45.63266 1.18058,47.22072 l 0.43381,2.88737 3.26465,-7.22072 c 1.79555,-3.97139 12.18613,-26.87071 23.09016,-50.88738 10.90404,-24.01667 28.5952,-63.01667 39.31367,-86.66667 19.52305,-43.07701 63.94257,-140.96858 74.35019,-163.85264 5.52361,-12.14522 5.53731,-12.18904 4.09507,-13.09985 -3.15217,-1.99066 -134.07635,-68.30713 -134.33788,-68.0456 -0.15387,0.15386 1.51759,3.06638 3.71435,6.47225 z m -133.74435,30.62246 c -35.42689,18.01981 -64.53411,32.86639 -64.6827,32.9924 -0.32967,0.27955 3.32161,8.0008 20.292,42.91098 19.18161,39.45892 33.99016,69.92754 46.82051,96.33333 6.23562,12.83334 16.81035,34.58334 23.49941,48.33334 6.68905,13.75 14.1875,29.2 16.6632,34.33333 2.47571,5.13333 13.56269,27.93334 24.63774,50.66667 11.07505,22.73333 21.35911,43.95833 22.85347,47.16667 1.49436,3.20833 2.92861,5.83333 3.18722,5.83333 0.25862,0 0.33816,-5.475 0.17678,-12.16667 -0.16139,-6.69166 -0.66772,-31.13844 -1.12519,-54.32616 -0.45746,-23.18773 -0.97017,-42.29793 -1.13935,-42.46711 -0.16918,-0.16919 -7.04741,-0.44232 -15.28494,-0.60697 -9.09622,-0.18182 -15.76268,-0.60484 -16.97734,-1.07731 -4.43124,-1.72361 -7.62578,-6.70836 -7.65203,-11.94021 -0.0111,-2.19917 3.77823,-13.03551 15.38599,-44 20.27848,-54.09426 19.30168,-51.41562 18.74927,-51.4153 -0.26578,1.4e-4 -10.08323,7.5399 -21.81657,16.755 -11.73333,9.21509 -22.64729,17.60243 -24.25324,18.63853 -9.0409,5.8328 -20.1278,0.32316 -20.28475,-10.08053 -0.0547,-3.62643 0.69092,-5.65441 4.89491,-13.31328 6.70232,-12.21039 44.52364,-81.79474 45.59876,-83.89343 0.90948,-1.77537 0.94393,-2.11323 0.16995,-1.66667 -0.93154,0.53747 -16.65185,10.75069 -31.65263,20.5642 -3.92682,2.56892 -11.78966,7.7037 -17.473,11.41062 -16.95176,11.05669 -23.24633,13.04976 -29.54892,9.3562 -3.46265,-2.02925 -4.85567,-3.96002 -5.75618,-7.97827 -1.14924,-5.12813 0.16719,-8.1196 11.05694,-25.12598 5.51754,-8.61667 19.42475,-30.36667 30.90491,-48.33334 11.48016,-17.96666 24.52239,-38.36666 28.98274,-45.33333 9.76715,-15.25543 9.21095,-14.33333 8.64572,-14.33333 -0.25308,0 -29.44579,14.74348 -64.87268,32.76329 z M 705.42927,141.61106 c 0.92608,2.03254 0.80995,2.3602 -9.11633,25.72234 -4.28429,10.08333 -11.32117,26.73333 -15.63752,37 -25.51567,60.69033 -32.18326,76.13734 -33.38035,77.33327 -1.83301,1.83124 -6.7146,1.6546 -13.96174,-0.5052 -36.36192,-10.83658 -37.64036,-11.2656 -39.90823,-13.3925 -1.49793,-1.40482 -4.41094,-6.53443 -8.78077,-15.46232 -9.79935,-20.0208 -18.03174,-37.75848 -18.41866,-39.68524 -0.64354,-3.20461 2.2309,-5.39351 16.62397,-12.65927 14.09138,-7.11346 40.21992,-20.34841 89.24977,-45.20788 16.00467,-8.1148 29.8861,-14.7542 30.84762,-14.7542 1.20171,0 1.97768,0.5036 2.48224,1.611 z m -518.77814,15.84707 c 0.88074,0.3258 16.16954,7.1504 33.97514,15.16573 17.80553,8.0154 47.18594,21.22569 65.28976,29.35623 18.10382,8.13054 33.92238,15.43617 35.15234,16.23472 4.45482,2.89228 4.37704,3.40297 -3.3568,22.04112 -14.02782,33.8063 -16.42636,38.8713 -19.29895,40.75349 -1.66383,1.09018 -29.57826,11.17497 -39.71945,14.34964 -6.77706,2.12155 -9.32496,2.39671 -11.48555,1.24039 -1.22849,-0.65746 -5.55922,-9.10388 -16.37289,-31.93272 -1.47626,-3.11666 -4.33166,-9.11666 -6.34533,-13.33333 -5.7018,-11.93987 -10.09847,-21.16113 -17.32367,-36.33333 C 195.15467,189.778 194.2036,187.79133 188.336,175.66673 c -3.194,-6.6 -6.0346,-12.7528 -6.3124,-13.6728 -1.0578,-3.50307 1.26487,-5.77973 4.62753,-4.5358 z m 440.01554,142.83672 c 1.28333,0.47713 10.58333,4.68677 20.66666,9.35477 10.08334,4.66798 22.83334,10.5299 28.33334,13.02646 5.5,2.49658 12.67634,5.79277 15.94743,7.32488 3.27109,1.53211 20.97109,9.69736 39.33333,18.145 41.77567,19.21912 70.51522,32.44224 92.3859,42.50696 9.35,4.3028 25.7,11.80988 36.33334,16.68241 10.63333,4.87253 20.16286,9.43905 21.17672,10.14783 4.07295,2.84734 4.85552,8.27718 1.68301,11.67738 -2.04832,2.19534 -3.00382,2.65333 -27.19307,13.03416 -35.61102,15.28249 -157.84742,67.82265 -193,82.95605 -43.6196,18.77853 -40.76084,17.66292 -44.31043,17.29188 -2.351,-0.24574 -3.43758,-0.81366 -5.16667,-2.70041 -2.6566,-2.89885 -2.87908,-5.85069 -0.68956,-9.14911 0.825,-1.24284 2.93496,-5.59222 4.68881,-9.66529 1.75385,-4.07307 12.88189,-29.24739 24.72897,-55.94294 l 21.54016,-48.53736 -3.81487,-7.72373 c -11.08815,-22.44942 -44.64307,-98.82257 -44.64307,-101.61047 0,-2.77619 2.1051,-5.61332 5.09052,-6.86071 2.64435,-1.10488 3.84378,-1.09754 6.90948,0.0423 z m -351,9.30689 c 2.89748,1.27898 4.39621,3.25457 4.81013,6.34055 0.33633,2.50753 -1.16087,5.87221 -19.82451,44.55175 -11.10358,23.01165 -23.30002,48.07622 -27.10316,55.69903 l -6.91486,13.85967 6.26053,11.807 c 6.30747,11.8955 7.82467,14.78103 23.73539,45.14033 11.05494,21.094 27.05561,53.42994 27.62502,55.82772 1.00419,4.22862 -3.37004,9.16442 -8.1265,9.16979 C 273.56429,552.00025 271.4236,551.12222 218,528.14912 88.327933,472.38782 46.635933,454.46931 32.172933,448.28383 c -8.8882,-3.80129 -16.928533,-7.41476 -17.8674,-8.02993 -2.218333,-1.45351 -3.638866,-4.26328 -3.638866,-7.19752 0,-4.18944 2.619066,-6.22944 15.4678,-12.04792 C 32.4772,418.1362 42.316667,413.62312 48,410.97942 53.683333,408.33571 65.683333,402.79698 74.666667,398.67112 83.65,394.54527 104.2,385.09043 120.33333,377.66036 c 16.13334,-7.43006 36.98334,-17.02754 46.33334,-21.32772 9.35,-4.30018 32.15,-14.797 50.66666,-23.32627 C 235.85,324.4771 254,316.12173 257.66667,314.43888 c 3.66666,-1.68286 7.8551,-3.67003 9.30762,-4.41594 3.0256,-1.55372 5.81992,-1.68912 8.69238,-0.4212 z m 386.36426,243.7626 c 0.75034,0.75034 2.36346,3.52534 3.58472,6.16666 1.22125,2.64132 4.3909,9.30241 7.04366,14.80241 2.65276,5.5 10.52872,22 17.50214,36.66667 6.97341,14.66666 14.474,30.41666 16.66798,35 2.19398,4.58333 5.42052,11.33333 7.1701,15 1.74958,3.66666 5.31542,11.13285 7.9241,16.59153 2.60867,5.45868 4.74304,10.57368 4.74304,11.36666 0,1.82343 -1.19898,3.04181 -2.99338,3.04181 -0.76635,0 -11.28135,-4.45047 -23.36666,-9.88993 -12.08532,-5.43946 -23.2964,-10.46446 -24.91354,-11.16667 C 650.97645,660.34107 587.44958,631.14734 585.97031,629.8493 584.7154,628.74814 584,627.47692 584,626.3482 c 0,-0.9747 3.73065,-10.67678 8.29032,-21.56016 12.33253,-29.4362 14.53845,-34.19046 16.82228,-36.25573 1.1583,-1.04745 22.57245,-8.92968 38.75896,-14.26659 8.02779,-2.64687 12.15137,-2.90938 14.15937,-0.90138 z m -405.36426,4.07878 c 2.38333,0.71628 9.43333,2.81714 15.66666,4.66858 24.60366,7.30784 24.1132,7.1283 26.31076,9.63118 2.42348,2.7602 4.4858,6.79582 17.11592,33.4931 5.26532,11.12974 9.57332,20.99713 9.57332,21.92753 0,3.72277 3.27036,1.91651 -75.66666,41.7916 -22.36667,11.29854 -45.096,22.80195 -50.50967,25.56314 -8.5958,4.3842 -10.04567,4.92803 -11.4422,4.29173 -2.95267,-1.34531 -2.698,-2.76846 2.85,-15.92795 2.9098,-6.90174 11.0544,-26.19862 18.09913,-42.88195 7.0448,-16.68334 14.75394,-34.98334 17.1314,-40.66667 14.4452,-34.53093 17.07087,-40.42948 18.62184,-41.83333 2.08245,-1.88494 6.10491,-1.90364 12.2495,-0.0569 z"
       id="path207" />
  </g>
</svg>
