<?xml version="1.0" encoding="UTF-8" standalone="no"?>
<!-- Created with Inkscape (http://www.inkscape.org/) -->

<svg
   version="1.1"
   id="svg89"
   width="100"
   height="100"
   viewBox="0 0 910 858.66669"
   sodipodi:docname="whiteLogo.svg"
   inkscape:version="1.2.2 (b0a84865, 2022-12-01)"
   xmlns:inkscape="http://www.inkscape.org/namespaces/inkscape"
   xmlns:sodipodi="http://sodipodi.sourceforge.net/DTD/sodipodi-0.dtd"
   xmlns="http://www.w3.org/2000/svg"
   xmlns:svg="http://www.w3.org/2000/svg">
  <defs
     id="defs93" />
  <sodipodi:namedview
     id="namedview91"
     pagecolor="#ffffff"
     bordercolor="#000000"
     borderopacity="0.25"
     inkscape:showpageshadow="2"
     inkscape:pageopacity="0.0"
     inkscape:pagecheckerboard="0"
     inkscape:deskcolor="#d1d1d1"
     showgrid="false"
     inkscape:zoom="1.0395604"
     inkscape:cx="455"
     inkscape:cy="429.50846"
     inkscape:window-width="3440"
     inkscape:window-height="1387"
     inkscape:window-x="1440"
     inkscape:window-y="25"
     inkscape:window-maximized="1"
     inkscape:current-layer="g95" />
  <g
     inkscape:groupmode="layer"
     inkscape:label="Image"
     id="g95">
    <path
       style="fill:#000000;stroke-width:0.666667"
       d="m 443.45209,20.614727 c 0.98199,0.317734 2.91136,1.434467 4.28749,2.481534 2.2286,1.695733 7.23383,11.4122 45.79687,88.903799 23.81216,47.85 51.321,103.20001 61.13077,123.00001 9.80977,19.8 33.73396,67.97802 53.16487,107.06227 19.43092,39.08426 35.69917,72.1841 36.15168,73.5552 1.54236,4.67342 -0.23318,12.87986 -3.77499,17.44778 -1.10938,1.43078 -8.18868,16.25142 -15.73178,32.93475 -19.81241,43.81981 -29.89171,66.05804 -68.13743,150.33334 -18.80322,41.43333 -42.95643,94.68334 -53.67379,118.33334 -35.31947,77.93951 -37.26568,82.16532 -38.98222,84.64229 -2.47259,3.56795 -6.5275,5.65036 -11.02229,5.66052 -4.27815,0.01 -7.22419,-1.44532 -10.07904,-4.97783 -1.04085,-1.28792 -8.22822,-15.38792 -15.97192,-31.33333 -7.74372,-15.94541 -18.66708,-38.44165 -24.27414,-49.99165 -5.60707,-11.55 -13.18485,-27.15 -16.83952,-34.66667 -12.79124,-26.30817 -29.10022,-59.86526 -40.33857,-83 -6.23415,-12.83334 -14.18089,-29.18334 -17.65942,-36.33334 -3.47853,-7.15 -8.35235,-17.2 -10.83072,-22.33333 -2.47836,-5.13333 -7.35445,-15.18334 -10.83576,-22.33334 -3.48131,-7.15 -14.13033,-29.05 -23.66451,-48.66666 -9.53418,-19.61667 -20.22224,-41.54934 -23.75126,-48.73926 C 252.53572,430.61301 252,429.19726 252,425.63747 c 0,-3.12729 0.44954,-4.75275 2.30719,-8.34241 2.37899,-4.59707 5.29776,-11.13559 44.02725,-98.62832 12.57891,-28.41667 35.82415,-80.91667 51.65607,-116.66667 15.83194,-35.75001 39.60061,-89.45001 52.81929,-119.333341 13.21867,-29.883334 24.81316,-55.424868 25.76552,-56.758935 0.95235,-1.334067 2.68331,-3.077733 3.84656,-3.8748 2.35161,-1.611333 8.13529,-2.355 11.03021,-1.418267 z m 37.03812,346.192843 c 3.19928,4.96019 65.12605,101.78756 75.16466,117.52584 3.70159,5.80326 4.98061,8.94875 4.99716,12.28952 0.0453,9.14123 -9.33815,15.32114 -17.38577,11.45024 -3.90254,-1.87712 -3.41452,-1.56668 -40.86549,-25.99426 -11.32958,-7.38976 -20.72909,-13.30607 -20.88782,-13.14734 -0.15872,0.15872 8.33474,16.13907 18.87436,35.51188 10.53963,19.37281 21.35346,39.24958 24.03074,44.17059 2.72112,5.00162 5.05074,10.16743 5.28267,11.71408 0.89763,5.98585 -2.51343,11.93238 -8.05971,14.05052 -6.43704,2.45833 -10.26729,0.64482 -31.86673,-15.08794 -9.10748,-6.63377 -16.69559,-11.92487 -16.86245,-11.75801 -0.34343,0.34342 25.296,69.91021 28.80706,78.16148 3.66816,8.62043 2.8037,15.14453 -2.54607,19.21538 -3.22962,2.45755 -4.86832,2.67524 -20.45997,2.71801 l -14.28716,0.0392 0.10658,4 c 0.0586,2.2 0.44262,23.95 0.85334,48.33333 0.41073,24.38334 0.94199,45.63266 1.18058,47.22072 l 0.43381,2.88737 3.26465,-7.22072 c 1.79555,-3.97139 12.18613,-26.87071 23.09016,-50.88738 10.90404,-24.01667 28.5952,-63.01667 39.31367,-86.66667 19.52305,-43.07701 63.94257,-140.96858 74.35019,-163.85264 5.52361,-12.14522 5.53731,-12.18904 4.09507,-13.09985 -3.15217,-1.99066 -134.07635,-68.30713 -134.33788,-68.0456 -0.15387,0.15386 1.51759,3.06638 3.71435,6.47225 z m -133.74435,30.62246 c -35.42689,18.01981 -64.53411,32.86639 -64.6827,32.9924 -0.32967,0.27955 3.32161,8.0008 20.292,42.91098 19.18161,39.45892 33.99016,69.92754 46.82051,96.33333 6.23562,12.83334 16.81035,34.58334 23.49941,48.33334 6.68905,13.75 14.1875,29.2 16.6632,34.33333 2.47571,5.13333 13.56269,27.93334 24.63774,50.66667 11.07505,22.73333 21.35911,43.95833 22.85347,47.16667 1.49436,3.20833 2.92861,5.83333 3.18722,5.83333 0.25862,0 0.33816,-5.475 0.17678,-12.16667 -0.16139,-6.69166 -0.66772,-31.13844 -1.12519,-54.32616 -0.45746,-23.18773 -0.97017,-42.29793 -1.13935,-42.46711 -0.16918,-0.16919 -7.04741,-0.44232 -15.28494,-0.60697 -9.09622,-0.18182 -15.76268,-0.60484 -16.97734,-1.07731 -4.43124,-1.72361 -7.62578,-6.70836 -7.65203,-11.94021 -0.0111,-2.19917 3.77823,-13.03551 15.38599,-44 20.27848,-54.09426 19.30168,-51.41562 18.74927,-51.4153 -0.26578,1.4e-4 -10.08323,7.5399 -21.81657,16.755 -11.73333,9.21509 -22.64729,17.60243 -24.25324,18.63853 -9.0409,5.8328 -20.1278,0.32316 -20.28475,-10.08053 -0.0547,-3.62643 0.69092,-5.65441 4.89491,-13.31328 6.70232,-12.21039 44.52364,-81.79474 45.59876,-83.89343 0.90948,-1.77537 0.94393,-2.11323 0.16995,-1.66667 -0.93154,0.53747 -16.65185,10.75069 -31.65263,20.5642 -3.92682,2.56892 -11.78966,7.7037 -17.473,11.41062 -16.95176,11.05669 -23.24633,13.04976 -29.54892,9.3562 -3.46265,-2.02925 -4.85567,-3.96002 -5.75618,-7.97827 -1.14924,-5.12813 0.16719,-8.1196 11.05694,-25.12598 5.51754,-8.61667 19.42475,-30.36667 30.90491,-48.33334 11.48016,-17.96666 24.52239,-38.36666 28.98274,-45.33333 9.76715,-15.25543 9.21095,-14.33333 8.64572,-14.33333 -0.25308,0 -29.44579,14.74348 -64.87268,32.76329 z M 705.42927,141.61106 c 0.92608,2.03254 0.80995,2.3602 -9.11633,25.72234 -4.28429,10.08333 -11.32117,26.73333 -15.63752,37 -25.51567,60.69033 -32.18326,76.13734 -33.38035,77.33327 -1.83301,1.83124 -6.7146,1.6546 -13.96174,-0.5052 -36.36192,-10.83658 -37.64036,-11.2656 -39.90823,-13.3925 -1.49793,-1.40482 -4.41094,-6.53443 -8.78077,-15.46232 -9.79935,-20.0208 -18.03174,-37.75848 -18.41866,-39.68524 -0.64354,-3.20461 2.2309,-5.39351 16.62397,-12.65927 14.09138,-7.11346 40.21992,-20.34841 89.24977,-45.20788 16.00467,-8.1148 29.8861,-14.7542 30.84762,-14.7542 1.20171,0 1.97768,0.5036 2.48224,1.611 z m -518.77814,15.84707 c 0.88074,0.3258 16.16954,7.1504 33.97514,15.16573 17.80553,8.0154 47.18594,21.22569 65.28976,29.35623 18.10382,8.13054 33.92238,15.43617 35.15234,16.23472 4.45482,2.89228 4.37704,3.40297 -3.3568,22.04112 -14.02782,33.8063 -16.42636,38.8713 -19.29895,40.75349 -1.66383,1.09018 -29.57826,11.17497 -39.71945,14.34964 -6.77706,2.12155 -9.32496,2.39671 -11.48555,1.24039 -1.22849,-0.65746 -5.55922,-9.10388 -16.37289,-31.93272 -1.47626,-3.11666 -4.33166,-9.11666 -6.34533,-13.33333 -5.7018,-11.93987 -10.09847,-21.16113 -17.32367,-36.33333 C 195.15467,189.778 194.2036,187.79133 188.336,175.66673 c -3.194,-6.6 -6.0346,-12.7528 -6.3124,-13.6728 -1.0578,-3.50307 1.26487,-5.77973 4.62753,-4.5358 z m 440.01554,142.83672 c 1.28333,0.47713 10.58333,4.68677 20.66666,9.35477 10.08334,4.66798 22.83334,10.5299 28.33334,13.02646 5.5,2.49658 12.67634,5.79277 15.94743,7.32488 3.27109,1.53211 20.97109,9.69736 39.33333,18.145 41.77567,19.21912 70.51522,32.44224 92.3859,42.50696 9.35,4.3028 25.7,11.80988 36.33334,16.68241 10.63333,4.87253 20.16286,9.43905 21.17672,10.14783 4.07295,2.84734 4.85552,8.27718 1.68301,11.67738 -2.04832,2.19534 -3.00382,2.65333 -27.19307,13.03416 -35.61102,15.28249 -157.84742,67.82265 -193,82.95605 -43.6196,18.77853 -40.76084,17.66292 -44.31043,17.29188 -2.351,-0.24574 -3.43758,-0.81366 -5.16667,-2.70041 -2.6566,-2.89885 -2.87908,-5.85069 -0.68956,-9.14911 0.825,-1.24284 2.93496,-5.59222 4.68881,-9.66529 1.75385,-4.07307 12.88189,-29.24739 24.72897,-55.94294 l 21.54016,-48.53736 -3.81487,-7.72373 c -11.08815,-22.44942 -44.64307,-98.82257 -44.64307,-101.61047 0,-2.77619 2.1051,-5.61332 5.09052,-6.86071 2.64435,-1.10488 3.84378,-1.09754 6.90948,0.0423 z m -351,9.30689 c 2.89748,1.27898 4.39621,3.25457 4.81013,6.34055 0.33633,2.50753 -1.16087,5.87221 -19.82451,44.55175 -11.10358,23.01165 -23.30002,48.07622 -27.10316,55.69903 l -6.91486,13.85967 6.26053,11.807 c 6.30747,11.8955 7.82467,14.78103 23.73539,45.14033 11.05494,21.094 27.05561,53.42994 27.62502,55.82772 1.00419,4.22862 -3.37004,9.16442 -8.1265,9.16979 C 273.56429,552.00025 271.4236,551.12222 218,528.14912 88.327933,472.38782 46.635933,454.46931 32.172933,448.28383 c -8.8882,-3.80129 -16.928533,-7.41476 -17.8674,-8.02993 -2.218333,-1.45351 -3.638866,-4.26328 -3.638866,-7.19752 0,-4.18944 2.619066,-6.22944 15.4678,-12.04792 C 32.4772,418.1362 42.316667,413.62312 48,410.97942 53.683333,408.33571 65.683333,402.79698 74.666667,398.67112 83.65,394.54527 104.2,385.09043 120.33333,377.66036 c 16.13334,-7.43006 36.98334,-17.02754 46.33334,-21.32772 9.35,-4.30018 32.15,-14.797 50.66666,-23.32627 C 235.85,324.4771 254,316.12173 257.66667,314.43888 c 3.66666,-1.68286 7.8551,-3.67003 9.30762,-4.41594 3.0256,-1.55372 5.81992,-1.68912 8.69238,-0.4212 z m 386.36426,243.7626 c 0.75034,0.75034 2.36346,3.52534 3.58472,6.16666 1.22125,2.64132 4.3909,9.30241 7.04366,14.80241 2.65276,5.5 10.52872,22 17.50214,36.66667 6.97341,14.66666 14.474,30.41666 16.66798,35 2.19398,4.58333 5.42052,11.33333 7.1701,15 1.74958,3.66666 5.31542,11.13285 7.9241,16.59153 2.60867,5.45868 4.74304,10.57368 4.74304,11.36666 0,1.82343 -1.19898,3.04181 -2.99338,3.04181 -0.76635,0 -11.28135,-4.45047 -23.36666,-9.88993 -12.08532,-5.43946 -23.2964,-10.46446 -24.91354,-11.16667 C 650.97645,660.34107 587.44958,631.14734 585.97031,629.8493 584.7154,628.74814 584,627.47692 584,626.3482 c 0,-0.9747 3.73065,-10.67678 8.29032,-21.56016 12.33253,-29.4362 14.53845,-34.19046 16.82228,-36.25573 1.1583,-1.04745 22.57245,-8.92968 38.75896,-14.26659 8.02779,-2.64687 12.15137,-2.90938 14.15937,-0.90138 z m -405.36426,4.07878 c 2.38333,0.71628 9.43333,2.81714 15.66666,4.66858 24.60366,7.30784 24.1132,7.1283 26.31076,9.63118 2.42348,2.7602 4.4858,6.79582 17.11592,33.4931 5.26532,11.12974 9.57332,20.99713 9.57332,21.92753 0,3.72277 3.27036,1.91651 -75.66666,41.7916 -22.36667,11.29854 -45.096,22.80195 -50.50967,25.56314 -8.5958,4.3842 -10.04567,4.92803 -11.4422,4.29173 -2.95267,-1.34531 -2.698,-2.76846 2.85,-15.92795 2.9098,-6.90174 11.0544,-26.19862 18.09913,-42.88195 7.0448,-16.68334 14.75394,-34.98334 17.1314,-40.66667 14.4452,-34.53093 17.07087,-40.42948 18.62184,-41.83333 2.08245,-1.88494 6.10491,-1.90364 12.2495,-0.0569 z"
       id="path324" />
    <path
       style="fill:#ffffff;stroke-width:0.961945"
       d="M 253.47252,542.66168 C 228.53305,532.16091 29.918617,446.76611 20.787177,442.618 c -7.500802,-3.40738 -9.169554,-5.10147 -9.213243,-9.35316 -0.03699,-3.59953 1.435386,-4.99325 9.588857,-9.07662 7.537093,-3.77468 237.809609,-109.93704 245.184149,-113.03706 4.1775,-1.75609 5.72188,-1.98773 7.98722,-1.19803 3.77456,1.31582 5.98578,4.82626 5.14647,8.17033 -0.94542,3.76684 -8.11663,19.03229 -32.15377,68.44608 l -21.22662,43.63613 15.52983,29.47169 c 22.2907,42.30214 42.14371,82.18495 42.14371,84.6627 0,3.01362 -4.16422,6.85727 -7.41135,6.84081 -1.47899,-0.008 -11.77945,-3.84113 -22.88991,-8.51919 z"
       id="path404" />
    <path
       style="fill:#ffffff;stroke-width:0.961945"
       d="m 448.26638,823.70445 c -2.77253,-1.01944 -4.89711,-3.56809 -8.59914,-10.3155 C 437.61586,809.65002 409.65869,752.4815 377.5402,686.34778 345.42171,620.21406 304.22281,535.40989 285.98708,497.89406 258.83953,442.0442 252.83321,428.97034 252.8422,425.74818 c 0.007,-2.6246 1.44445,-7.01418 4.31488,-13.17952 2.36714,-5.08433 29.29315,-65.68687 59.83558,-134.6723 C 378.7711,138.35887 420.38953,44.630869 425.46882,33.59943 c 4.29595,-9.330144 7.81396,-12.436639 14.08414,-12.436639 3.21657,0 5.37771,0.606872 7.16355,2.011617 2.74023,2.155467 47.22387,90.430422 144.37414,286.501302 47.54874,95.96395 52.62921,106.6647 52.5973,110.78339 -0.029,3.75163 -1.56643,7.68253 -8.68056,22.19533 -4.75489,9.69994 -39.14844,84.94837 -76.4301,167.21872 -88.63929,195.60243 -92.85201,204.84121 -95.02618,208.39918 -2.90058,4.74671 -10.14585,7.32166 -15.28473,5.43212 z m -8.03177,-101.52422 c -0.34875,-18.64971 -0.91126,-43.25332 -1.25001,-54.67468 l -0.61593,-20.76613 -16.61758,-0.8778 c -15.59791,-0.82393 -16.76817,-1.01928 -19.07185,-3.18347 -1.34985,-1.26811 -2.93414,-3.75968 -3.52064,-5.53679 -1.33896,-4.05709 -1.38684,-3.90853 18.5094,-57.43053 8.42866,-22.67358 15.09319,-41.45634 14.81006,-41.73947 -0.53996,-0.53995 -4.47634,2.35817 -30.28456,22.29672 -8.67439,6.70153 -17.07768,12.86001 -18.67399,13.68549 -7.26602,3.7574 -17.01845,-2.12615 -17.01845,-10.26709 0,-4.72835 0.34658,-5.42795 26.44103,-53.37464 23.46486,-43.11499 24.83065,-45.72444 24.24089,-46.3142 -0.23946,-0.23946 -13.5203,8.06818 -29.51299,18.46141 -30.33905,19.71657 -38.88129,24.48395 -43.87287,24.48522 -4.56657,9.6e-4 -9.30142,-3.69588 -10.81469,-8.44426 -1.22779,-3.85262 -1.14729,-4.364 1.58552,-10.07163 1.58344,-3.30712 19.78609,-32.41834 40.45033,-64.69159 20.66425,-32.27326 37.19904,-58.80912 36.74398,-58.96857 -1.27334,-0.4462 -127.02408,62.98918 -129.33681,65.24439 -0.51201,0.49928 0.13561,3.13086 1.5808,6.42346 1.34648,3.06772 33.70672,69.85965 71.91164,148.42651 38.20493,78.56686 72.51405,149.23375 76.2425,157.03753 3.72845,7.80377 7.21309,14.18868 7.74364,14.18868 0.63866,0 0.75037,-11.45925 0.33058,-33.90856 z M 538.7362,593.52008 c 38.76337,-85.44476 71.25959,-157.3711 72.21382,-159.83628 1.34274,-3.46891 1.47149,-4.70021 0.56953,-5.44665 -2.28089,-1.88762 -133.53149,-68.46971 -134.97158,-68.46971 -0.32506,0 -0.36314,0.59384 -0.0847,1.31964 0.27851,0.72579 17.9347,28.53803 39.23596,61.80496 21.30126,33.26694 39.94193,62.64971 41.42371,65.29506 4.67145,8.33973 3.16176,15.53302 -4.0418,19.25812 -5.89346,3.04764 -5.73428,3.12479 -41.72487,-20.22493 -15.14785,-9.82751 -28.2562,-18.14245 -29.12969,-18.47764 -1.23539,-0.47405 -1.43831,-0.21894 -0.91358,1.14849 0.37103,0.96686 11.12261,21.03179 23.89242,44.58875 26.2623,48.44705 26.49029,49.04792 20.98811,55.31455 -6.2948,7.16939 -11.40443,6.29427 -26.94414,-4.6147 -23.34964,-16.39158 -25.97981,-18.14636 -26.46768,-17.6585 -0.50898,0.50898 10.44894,31.05462 23.48621,65.46876 7.89706,20.84566 8.45816,24.85003 4.15662,29.66428 -3.42156,3.82939 -7.57829,4.63886 -24.09843,4.69283 l -12.82284,0.0419 0.5409,9.37896 c 0.2975,5.15843 0.78665,26.91041 1.087,48.33774 0.53933,38.4756 0.94892,46.11375 2.38966,44.56181 0.40505,-0.43633 32.45195,-70.70267 71.21532,-156.14744 z"
       id="path406" />
    <path
       style="fill:#ffffff;stroke-width:0.961945"
       d="m 247.36453,295.46178 c -1.0327,-1.0327 -4.6882,-7.65619 -8.12332,-14.71886 -16.26195,-33.43483 -56.36824,-118.12732 -56.64322,-119.61351 -0.17017,-0.91978 0.38317,-2.11943 1.22966,-2.66589 1.19377,-0.77066 9.39489,2.52416 36.55391,14.68562 61.17233,27.39219 98.43243,44.34775 100.78129,45.86149 3.31772,2.13813 2.52963,5.50764 -6.14777,26.28535 -10.85992,26.00371 -14.40422,33.31055 -16.94878,34.94131 -2.56192,1.6419 -34.58987,13.32491 -41.22698,15.03861 -2.38081,0.61473 -5.06414,1.3305 -5.96295,1.5906 -0.89881,0.26011 -2.47913,-0.37201 -3.51184,-1.40472 z"
       id="path408" />
    <path
       style="fill:#ffffff;stroke-width:0.961945"
       d="m 635.36469,280.9831 c -12.50165,-3.13231 -36.90572,-10.90754 -39.84412,-12.69449 -2.29043,-1.39289 -4.94628,-5.86516 -12.35237,-20.80053 -5.18904,-10.46437 -11.11362,-22.81883 -13.16575,-27.45436 l -3.73114,-8.42822 2.22538,-2.36881 c 1.22396,-1.30285 24.77817,-13.82009 52.34268,-27.8161 69.41182,-35.24418 81.9429,-41.33709 83.29631,-40.50063 0.7156,0.44226 0.94575,1.8098 0.59755,3.55076 -0.51185,2.55925 -44.06411,106.4064 -53.36448,127.24366 -3.63323,8.14017 -5.91493,11.18911 -8.25187,11.02664 -0.56021,-0.0389 -4.0487,-0.83001 -7.75219,-1.75792 z"
       id="path410" />
    <path
       style="fill:#ffffff;stroke-width:0.961945"
       d="m 616.10248,541.18627 c -1.60004,-0.69278 -3.43901,-2.4225 -4.0866,-3.84381 -0.99595,-2.18589 -0.89159,-3.14453 0.67707,-6.21936 1.01998,-1.99933 12.90484,-28.58162 26.4108,-59.07175 l 24.55628,-55.4366 -5.82902,-12.31108 c -16.92353,-35.743 -42.18619,-94.26437 -42.18619,-97.725 0,-2.90003 4.00183,-6.45182 7.2693,-6.45182 2.20784,0 18.0867,7.20077 164.91886,74.78763 89.98962,41.42224 92.60541,42.68332 94.6804,45.64578 4.30404,6.14489 1.0977,8.76685 -23.97744,19.60733 -59.81229,25.85805 -235.93217,101.27154 -237.60042,101.73909 -1.05814,0.29656 -3.23301,-0.0276 -4.83304,-0.72041 z"
       id="path412" />
    <path
       style="fill:#ffffff;stroke-width:0.961945"
       d="m 720.49683,690.20127 c -3.93057,-1.434 -57.40886,-25.25315 -88.01797,-39.20307 -35.36535,-16.11754 -46.63716,-21.68405 -47.27509,-23.34647 -0.33537,-0.87394 0.81103,-5.33987 2.54754,-9.92427 5.61136,-14.81402 19.04133,-45.48454 20.73733,-47.35859 1.82278,-2.01416 10.30443,-5.46703 30.97903,-12.61154 15.26112,-5.27377 20.62713,-6.04797 22.65902,-3.2692 1.13374,1.55048 51.40759,106.46094 60.82601,126.93051 2.89247,6.28633 3.26674,7.78339 2.19843,8.79354 -1.03853,0.982 -1.93852,0.9799 -4.6543,-0.0109 z"
       id="path414" />
    <path
       style="fill:#ffffff;stroke-width:0.961945"
       d="m 187.11269,697.43342 c -0.37206,-0.60201 -0.38413,-2.26036 -0.0268,-3.68524 0.80298,-3.20208 50.31846,-120.91371 54.61617,-129.83736 3.11004,-6.4576 3.11703,-6.46392 7.44171,-6.72253 3.12399,-0.18681 10.05891,1.48253 24.91724,5.99794 11.32367,3.44124 21.54601,6.88419 22.71631,7.651 2.38631,1.56357 7.56254,11.24867 17.77817,33.26425 8.76198,18.88283 10.57903,23.47156 9.78037,24.69914 -0.35274,0.54217 -2.47969,2.13724 -4.72656,3.54458 -5.86312,3.67241 -126.7739,64.91626 -129.52346,65.60636 -1.29139,0.32411 -2.59277,0.0973 -2.97314,-0.51814 z"
       id="path416" />
  </g>
</svg>
